<svg width="25" height="7" viewBox="0 0 25 7" fill="none" xmlns="http://www.w3.org/2000/svg">
<path d="M9.45281 0.403789C9.24354 0.146112 8.90106 0.03125 8.58887 0.03125C8.14804 0.03125 7.7375 0.232005 7.55625 0.662483C7.34699 0.232513 7.05424 0.03125 6.58711 0.03125C6.12683 0.03125 5.78549 0.232005 5.60309 0.662483H5.59051V0.217266C5.58594 0.155769 5.52762 0.105961 5.455 0.10342H4.75859C4.67911 0.10342 4.6145 0.157802 4.6145 0.225906V3.63314C4.61965 3.69413 4.67682 3.7414 4.7483 3.74546H5.4956C5.57507 3.74546 5.63911 3.69006 5.63911 3.62247V1.81568C5.63911 1.42179 5.61738 0.876452 6.1537 0.876452C6.68431 0.876452 6.61512 1.43551 6.61512 1.81568V3.62196C6.61512 3.68752 6.67459 3.73987 6.75006 3.74495H7.49565C7.57627 3.74495 7.63973 3.68956 7.63973 3.62196V1.81568C7.63973 1.62204 7.63287 1.33438 7.70892 1.16259C7.78553 0.990806 7.97479 0.883567 8.15547 0.883567C8.37217 0.883567 8.53912 0.948114 8.59459 1.17682C8.63004 1.31354 8.61574 1.67185 8.61574 1.81568V3.62196C8.61574 3.68752 8.67578 3.73987 8.75011 3.74495H9.49627C9.57574 3.74495 9.63978 3.68956 9.63978 3.62196L9.64092 1.47211C9.64092 1.10668 9.68895 0.690436 9.45281 0.403789Z" fill="#FFFBF7"/>
<path d="M19.2961 0.0321045C18.2154 0.0321045 17.6162 0.856976 17.6162 1.91716C17.6162 2.97125 18.208 3.81696 19.2961 3.81696C20.3413 3.81696 21.0039 2.9926 21.0039 1.95325C21.0068 0.877814 20.4053 0.0321045 19.2961 0.0321045ZM19.2961 3.11457C18.7106 3.11457 18.7169 2.22566 18.7169 1.80942C18.7169 1.39418 18.7523 0.727375 19.3018 0.727375C19.5385 0.727375 19.7072 0.819875 19.7901 1.05722C19.8884 1.32964 19.9021 1.67321 19.9021 1.96087C19.9044 2.39796 19.8764 3.11457 19.2961 3.11457Z" fill="#FFFBF7"/>
<path d="M13.8223 3.12262C13.6863 2.95389 13.5422 2.81768 13.5422 2.50714V1.47237C13.5422 1.03477 13.5759 0.63225 13.2128 0.330356C12.9264 0.0858927 12.4512 0 12.0882 0C11.378 0 10.5838 0.235315 10.418 1.01597C10.4003 1.09932 10.4678 1.14303 10.5289 1.15523L11.2528 1.22435C11.3203 1.22181 11.37 1.16285 11.3832 1.10288C11.4444 0.834021 11.6988 0.704419 11.9835 0.704419C12.1373 0.704419 12.3117 0.754735 12.4015 0.877221C12.5073 1.01343 12.493 1.20046 12.493 1.35802L12.4924 1.44238C12.0596 1.4866 11.4935 1.51455 11.0881 1.67312C10.6199 1.85253 10.2922 2.21948 10.2922 2.75821C10.2922 3.44789 10.7805 3.79299 11.4089 3.79299C11.9395 3.79299 12.2311 3.68169 12.6405 3.31016C12.7754 3.485 12.8206 3.57038 13.0687 3.75335C13.1254 3.77978 13.1968 3.77673 13.246 3.7381L13.2471 3.73912C13.3964 3.62222 13.6668 3.4113 13.8189 3.29847C13.8789 3.25426 13.8704 3.18209 13.8223 3.12262ZM12.4924 2.11885C12.4924 2.37754 12.5004 2.59304 12.3523 2.82276C12.2345 3.00979 12.0453 3.12415 11.8372 3.12415C11.5496 3.12415 11.3815 2.93051 11.3815 2.64335C11.3815 2.07768 11.9521 1.97502 12.4924 1.97502V2.11885Z" fill="#FFFBF7"/>
<path d="M24.4376 0.432413C24.2278 0.138651 23.899 0.0309037 23.5645 0.0303955C23.0493 0.0303955 22.7549 0.252497 22.5468 0.718552H22.5347V0.197606C22.5205 0.144241 22.4656 0.104599 22.401 0.102058H21.7085C21.6325 0.102058 21.5713 0.150849 21.5645 0.213362L21.5656 3.62161C21.5656 3.68718 21.6245 3.74054 21.7005 3.74562H22.4433C22.5239 3.74562 22.5885 3.69023 22.5896 3.62161V1.78789C22.5896 1.55765 22.6028 1.3508 22.7091 1.14242C22.792 0.978262 22.9584 0.870006 23.1414 0.870006C23.656 0.870006 23.6068 1.41535 23.6068 1.78789V3.63839C23.6125 3.69582 23.6714 3.74054 23.7383 3.74613H24.4879C24.5628 3.74613 24.6228 3.69785 24.6331 3.63839V1.49362C24.6331 1.16377 24.6331 0.705846 24.4376 0.432413Z" fill="#FFFBF7"/>
<path d="M17.131 2.82283C16.7022 2.60836 16.2042 2.54533 15.7307 2.55601L17.0046 0.941839C17.1218 0.796483 17.1887 0.705508 17.1887 0.635371V0.218107C17.1887 0.14492 17.1264 0.0946045 17.0469 0.0946045H14.5923C14.5157 0.0946045 14.454 0.143904 14.454 0.218107V0.705508C14.454 0.778186 14.5157 0.827994 14.5958 0.827994H15.8788L14.4048 2.70645C14.3156 2.8269 14.3145 2.96209 14.3145 3.04138V3.53589C14.3145 3.60705 14.4054 3.68887 14.49 3.6472C15.3253 3.25331 16.3271 3.29244 17.0818 3.64415C17.1756 3.68684 17.2625 3.60349 17.2625 3.53233V3.0119C17.2539 2.94227 17.2282 2.87061 17.131 2.82283Z" fill="#FFFBF7"/>
<path d="M16.6543 4.05684C16.5017 3.88861 15.1866 3.74376 14.3844 4.24438C14.262 4.32112 14.2821 4.42735 14.4199 4.41312C14.871 4.36585 15.8773 4.25861 16.0557 4.46191C16.2346 4.66571 15.8561 5.50736 15.6863 5.88244C15.6343 5.99628 15.7452 6.04202 15.8607 5.95664C16.6149 5.39859 16.8081 4.22659 16.6543 4.05684Z" fill="#FF8000"/>
<path d="M15.274 4.76193C13.7027 5.35505 11.9937 5.64068 10.4385 5.64068C8.13599 5.64068 5.90438 5.08009 4.10159 4.14696C3.94435 4.06463 3.82714 4.20846 3.95807 4.31367C5.62936 5.65593 7.8381 6.46301 10.2916 6.46301C12.0423 6.46301 14.0738 5.97358 15.4769 5.05468C15.7085 4.90221 15.5112 4.6735 15.274 4.76193Z" fill="#FF8000"/>
<path d="M4.03043 3.12262C3.89378 2.95389 3.74912 2.81768 3.74912 2.50714V1.47237C3.74912 1.03477 3.784 0.63225 3.42092 0.330356C3.1339 0.0858927 2.65933 0 2.29511 0C1.58497 0 0.792502 0.235315 0.624973 1.01597C0.60782 1.09932 0.676433 1.14303 0.735896 1.15523L1.46204 1.22435C1.52837 1.22181 1.57811 1.16285 1.59126 1.10288C1.65244 0.834021 1.90745 0.704419 2.19219 0.704419C2.34543 0.704419 2.51924 0.754735 2.61073 0.877221C2.71479 1.01343 2.7005 1.20046 2.7005 1.35802V1.4434C2.26824 1.48812 1.70219 1.51608 1.29623 1.67465C0.829667 1.85304 0.499756 2.21999 0.499756 2.75872C0.499756 3.4484 0.98919 3.7935 1.61756 3.7935C2.14931 3.7935 2.43977 3.68219 2.84916 3.31067C2.98466 3.4855 3.02926 3.57089 3.27741 3.75385C3.33344 3.78028 3.40434 3.77723 3.45409 3.73861L3.45637 3.73962C3.60503 3.62273 3.87548 3.41181 4.02871 3.29898C4.08932 3.25324 4.07903 3.18209 4.03043 3.12262ZM2.7005 2.11885C2.7005 2.37754 2.7085 2.59304 2.56098 2.82276C2.44263 3.00979 2.25452 3.12415 2.0441 3.12415C1.75765 3.12415 1.59126 2.93051 1.59126 2.64335C1.59126 2.07768 2.16132 1.97502 2.7005 1.97502V2.11885Z" fill="#FFFBF7"/>
</svg>
