<svg width="26" height="25" viewBox="0 0 26 25" fill="none" xmlns="http://www.w3.org/2000/svg">
<g clip-path="url(#clip0_2_1883)">
<path d="M4.22913 22.0792H19.0823L18.3729 19.7823L20.0698 21.2385L21.625 22.6323L24.4583 25V2.57812C24.3875 1.18437 23.1875 -7.62939e-06 21.7 -7.62939e-06L4.23433 0.00311737C2.74788 0.00311737 1.54163 1.18958 1.54163 2.58333V19.5C1.54163 20.9698 2.74579 22.0792 4.22913 22.0792ZM15.2166 5.91978L15.1823 5.93228L15.1948 5.91978H15.2166ZM7.26767 7.24166C9.17704 5.85208 10.9468 5.91874 10.9468 5.91874L11.0895 6.05937C8.75309 6.61666 7.69371 7.66041 7.69371 7.66041C7.69371 7.66041 7.97704 7.52187 8.47184 7.31041C11.6187 6.07291 15.0552 6.16249 18.2364 7.72916C18.2364 7.72916 17.175 6.75312 14.9823 6.12812L15.176 5.93749C15.4791 5.93853 17.0833 5.99478 18.8 7.24999C18.8 7.24999 20.7208 10.5312 20.7208 14.5625C20.6573 14.4854 19.5291 16.2979 16.626 16.3604C16.626 16.3604 16.1343 15.8042 15.7843 15.3187C17.4823 14.8312 18.1177 13.8562 18.1177 13.8562C17.5604 14.2073 17.052 14.4156 16.6395 14.624C16.0052 14.9031 15.3698 15.0406 14.7354 15.1812C11.7312 15.6687 10.0448 14.8531 8.451 14.2062L7.90621 13.9292C7.90621 13.9292 8.54059 14.9042 10.1708 15.3917C9.74267 15.8802 9.31871 16.4354 9.31871 16.4354C6.41663 16.3667 5.35829 14.5542 5.35829 14.5542C5.35829 10.5167 7.26767 7.24166 7.26767 7.24166Z" fill="white"/>
<path d="M15.4042 13.3036C16.1448 13.3036 16.7479 12.6786 16.7479 11.9077C16.7479 11.1421 16.1479 10.5171 15.4042 10.5171V10.5202C14.6667 10.5202 14.0625 11.1431 14.0604 11.914C14.0604 12.6786 14.6635 13.3036 15.4042 13.3036Z" fill="white"/>
<path d="M10.5937 13.3036C11.3344 13.3036 11.9375 12.6786 11.9375 11.9077C11.9375 11.1421 11.3385 10.5171 10.5979 10.5171L10.5937 10.5202C9.85312 10.5202 9.25 11.1431 9.25 11.914C9.25 12.6786 9.85312 13.3036 10.5937 13.3036Z" fill="white"/>
</g>
<defs>
<clipPath id="clip0_2_1883">
<rect width="25" height="25" fill="white" transform="translate(0.5)"/>
</clipPath>
</defs>
</svg>
