<svg width="26" height="25" viewBox="0 0 26 25" fill="none" xmlns="http://www.w3.org/2000/svg">
<g clip-path="url(#clip0_2_1405)">
<path d="M25.4755 7.35007C25.417 6.02172 25.2022 5.1085 24.8945 4.31717C24.577 3.4772 24.0886 2.72518 23.4488 2.10002C22.8236 1.46513 22.0666 0.971793 21.2364 0.659308C20.4405 0.351593 19.532 0.136784 18.2037 0.0782166C16.8654 0.0146894 16.4406 0 13.0464 0C9.65216 0 9.22731 0.0146894 7.894 0.0732565C6.56566 0.131824 5.65244 0.346824 4.8613 0.654348C4.02114 0.971793 3.26912 1.46017 2.64396 2.10002C2.00907 2.72518 1.51593 3.48216 1.20325 4.3124C0.895538 5.1085 0.680729 6.01676 0.622162 7.34511C0.558635 8.68338 0.543945 9.10822 0.543945 12.5024C0.543945 15.8967 0.558635 16.3215 0.617202 17.6548C0.675769 18.9832 0.890769 19.8964 1.19848 20.6877C1.51593 21.5277 2.00907 22.2797 2.64396 22.9049C3.26912 23.5398 4.0261 24.0331 4.85634 24.3456C5.65244 24.6533 6.5607 24.8681 7.88924 24.9267C9.22235 24.9854 9.64739 24.9999 13.0416 24.9999C16.4358 24.9999 16.8607 24.9854 18.194 24.9267C19.5223 24.8681 20.4355 24.6533 21.2267 24.3456C22.9068 23.696 24.2351 22.3677 24.8847 20.6877C25.1922 19.8916 25.4072 18.9832 25.4658 17.6548C25.5244 16.3215 25.5391 15.8967 25.5391 12.5024C25.5391 9.10822 25.5341 8.68338 25.4755 7.35007ZM23.2242 17.5571C23.1704 18.7781 22.9654 19.4374 22.7944 19.8769C22.3744 20.966 21.51 21.8304 20.4209 22.2505C19.9813 22.4214 19.3172 22.6265 18.1011 22.6801C16.7824 22.7389 16.387 22.7534 13.0513 22.7534C9.71569 22.7534 9.31526 22.7389 8.00141 22.6801C6.78047 22.6265 6.12116 22.4214 5.68162 22.2505C5.13964 22.0502 4.6463 21.7328 4.24587 21.3176C3.83075 20.9123 3.51331 20.4239 3.313 19.8819C3.14207 19.4424 2.93699 18.7781 2.88338 17.5621C2.82462 16.2435 2.81012 15.8478 2.81012 12.5122C2.81012 9.17652 2.82462 8.77609 2.88338 7.46243C2.93699 6.24149 3.14207 5.58218 3.313 5.14264C3.51331 4.60047 3.83075 4.10732 4.25083 3.7067C4.65603 3.29158 5.14441 2.97414 5.68658 2.77402C6.12612 2.60309 6.79039 2.39801 8.00637 2.34421C9.32499 2.28564 9.72065 2.27095 13.0561 2.27095C16.3967 2.27095 16.7922 2.28564 18.106 2.34421C19.327 2.39801 19.9863 2.60309 20.4258 2.77402C20.9678 2.97414 21.4611 3.29158 21.8616 3.7067C22.2767 4.11209 22.5941 4.60047 22.7944 5.14264C22.9654 5.58218 23.1704 6.24626 23.2242 7.46243C23.2828 8.78105 23.2975 9.17652 23.2975 12.5122C23.2975 15.8478 23.2828 16.2385 23.2242 17.5571Z" fill="white"/>
<path d="M13.0464 6.08032C9.50092 6.08032 6.62427 8.95679 6.62427 12.5025C6.62427 16.0482 9.50092 18.9246 13.0464 18.9246C16.5921 18.9246 19.4686 16.0482 19.4686 12.5025C19.4686 8.95679 16.5921 6.08032 13.0464 6.08032ZM13.0464 16.6684C10.7463 16.6684 8.88053 14.8028 8.88053 12.5025C8.88053 10.2021 10.7463 8.33659 13.0464 8.33659C15.3468 8.33659 17.2123 10.2021 17.2123 12.5025C17.2123 14.8028 15.3468 16.6684 13.0464 16.6684V16.6684Z" fill="white"/>
<path d="M21.2219 5.82643C21.2219 6.65438 20.5506 7.32571 19.7224 7.32571C18.8945 7.32571 18.2231 6.65438 18.2231 5.82643C18.2231 4.99829 18.8945 4.32715 19.7224 4.32715C20.5506 4.32715 21.2219 4.99829 21.2219 5.82643V5.82643Z" fill="white"/>
</g>
<defs>
<clipPath id="clip0_2_1405">
<rect width="25" height="25" fill="white" transform="translate(0.5)"/>
</clipPath>
</defs>
</svg>
