<svg width="261" height="162" viewBox="0 0 261 162" fill="none" xmlns="http://www.w3.org/2000/svg">
<rect x="0.0856934" y="0.327148" width="260.466" height="160.865" rx="15" fill="url(#paint0_linear_2_1509)"/>
<path d="M106.326 119.996C106.326 121.862 105.804 123.329 104.761 124.397C103.723 125.466 102.278 126 100.426 126C98.5327 126 97.0703 125.476 96.0386 124.429C95.0129 123.377 94.5 121.894 94.5 119.98C94.5 118.082 95.0158 116.613 96.0474 115.571C97.0791 114.524 98.5444 114 100.444 114C102.29 114 103.732 114.532 104.769 115.595C105.807 116.658 106.326 118.125 106.326 119.996ZM96.0826 119.996C96.0826 121.575 96.4519 122.773 97.1904 123.592C97.9349 124.405 99.0134 124.812 100.426 124.812C101.85 124.812 102.926 124.405 103.653 123.592C104.38 122.779 104.743 121.58 104.743 119.996C104.743 118.428 104.38 117.24 103.653 116.432C102.932 115.619 101.862 115.212 100.444 115.212C99.0192 115.212 97.9349 115.621 97.1904 116.44C96.4519 117.253 96.0826 118.439 96.0826 119.996Z" fill="white"/>
<path d="M114.283 125.841H112.788V115.387H108.717V114.183H118.353V115.387H114.283V125.841Z" fill="white"/>
<path d="M131.181 125.841H129.687V120.355H122.917V125.841H121.422V114.183H122.917V119.143H129.687V114.183H131.181V125.841Z" fill="white"/>
<path d="M143.007 125.841H135.841V114.183H143.007V115.387H137.336V119.143H142.664V120.339H137.336V124.629H143.007V125.841Z" fill="white"/>
<path d="M148.485 120.993V125.841H146.99V114.183H150.516C152.092 114.183 153.256 114.457 154.006 115.005C154.762 115.552 155.14 116.376 155.14 117.476C155.14 119.018 154.279 120.06 152.555 120.602L156.046 125.841H154.279L151.166 120.993H148.485ZM148.485 119.829H150.533C151.588 119.829 152.362 119.64 152.854 119.262C153.347 118.88 153.593 118.308 153.593 117.548C153.593 116.777 153.341 116.222 152.837 115.882C152.339 115.542 151.536 115.371 150.428 115.371H148.485V119.829Z" fill="white"/>
<path d="M166.5 122.739C166.5 123.765 166.09 124.565 165.269 125.139C164.448 125.713 163.335 126 161.928 126C160.404 126 159.232 125.822 158.411 125.466V124.158C158.939 124.36 159.513 124.52 160.134 124.637C160.756 124.753 161.371 124.812 161.981 124.812C162.977 124.812 163.727 124.642 164.232 124.302C164.736 123.956 164.988 123.478 164.988 122.866C164.988 122.462 164.897 122.133 164.715 121.878C164.539 121.617 164.24 121.378 163.818 121.16C163.402 120.942 162.766 120.695 161.91 120.419C160.715 120.031 159.859 119.571 159.343 119.039C158.833 118.508 158.578 117.814 158.578 116.958C158.578 116.06 158.95 115.345 159.695 114.813C160.439 114.282 161.424 114.016 162.649 114.016C163.927 114.016 165.102 114.229 166.175 114.654L165.709 115.834C164.648 115.43 163.616 115.228 162.614 115.228C161.823 115.228 161.204 115.382 160.759 115.69C160.313 115.999 160.09 116.427 160.09 116.974C160.09 117.378 160.172 117.71 160.337 117.971C160.501 118.226 160.776 118.462 161.163 118.68C161.556 118.893 162.154 119.13 162.957 119.39C164.305 119.826 165.231 120.294 165.735 120.793C166.245 121.293 166.5 121.942 166.5 122.739Z" fill="white"/>
<path d="M164.657 60.7456C165.47 60.7456 166.13 60.1601 166.13 59.4373L166.13 53.3345C166.13 52.0953 165 51.0904 163.606 51.0904L98.9387 51.0862C97.544 51.0862 96.414 52.0911 96.4135 53.3303V59.4326C96.4135 60.1553 97.0722 60.7413 97.8854 60.7418C98.699 60.7418 99.3577 61.3278 99.3577 62.0506L99.3567 74.0772C99.3567 74.8 98.6974 75.386 97.8843 75.386C97.0712 75.386 96.4119 75.972 96.4119 76.6947L96.4114 82.7975C96.4114 84.0367 97.5419 85.0411 98.936 85.0416L163.604 85.0454C164.998 85.0454 166.128 84.041 166.128 82.8018L166.129 76.699C166.129 75.9762 165.469 75.3902 164.656 75.3902C163.843 75.3902 163.184 74.8042 163.184 74.081L163.185 62.0544C163.185 61.3316 163.844 60.7456 164.657 60.7456V60.7456Z" fill="url(#paint1_linear_2_1509)"/>
<path d="M96.4119 77.1213L96.4114 82.7976C96.4114 84.0368 97.5414 85.0412 98.9355 85.0417L163.603 85.0455C164.998 85.0455 166.128 84.0411 166.128 82.8019L166.128 77.1218H96.4119V77.1213Z" fill="url(#paint2_linear_2_1509)"/>
<path d="M99.2473 68.4465L103.883 72.5669V68.4465H99.2473Z" fill="url(#paint3_linear_2_1509)"/>
<path d="M118.083 51.2118L123.102 55.673H118.083V51.2118Z" fill="url(#paint4_linear_2_1509)"/>
<path d="M159.031 80.8944H104.138C103.224 80.8944 102.483 80.236 102.483 79.4228V56.7106C102.483 55.8974 103.224 55.2385 104.138 55.2385H159.031C159.945 55.2385 160.687 55.8974 160.687 56.7106V79.4228C160.687 80.2355 159.945 80.8944 159.031 80.8944V80.8944Z" fill="url(#paint5_linear_2_1509)"/>
<path d="M125.375 59.1869C124.429 58.2436 122.857 57.8791 121.455 58.4357C120.084 58.981 118.766 59.6934 117.56 60.2888C116.831 60.6491 116.234 61.0126 115.701 61.3747C115.124 61.1375 114.482 61.0045 113.805 61.0045C113.094 61.0045 112.423 61.1503 111.824 61.4097C111.298 61.0609 110.707 60.7115 109.992 60.366C108.78 59.7805 107.456 59.079 106.079 58.5455C104.156 57.8005 101.931 58.7761 101.432 60.5871C101.074 61.8864 102.699 63.1724 102.684 64.4646C102.684 64.4646 101.056 67.3861 101.476 68.8482C101.649 69.4527 102.015 69.961 102.497 70.3426L116.155 82.4832C116.242 82.5713 116.336 82.6536 116.434 82.7312C116.706 83.0044 117.031 83.2292 117.389 83.3972C117.444 83.4233 117.499 83.4474 117.555 83.4701C117.557 83.4711 117.559 83.472 117.561 83.4725C117.615 83.4947 117.67 83.5156 117.725 83.535C117.729 83.5364 117.733 83.5378 117.738 83.5392C117.79 83.5577 117.844 83.5752 117.897 83.5913C117.904 83.5932 117.911 83.5951 117.918 83.597C117.969 83.6121 118.021 83.6259 118.073 83.6391C118.082 83.641 118.091 83.6434 118.1 83.6453C118.15 83.6576 118.201 83.6685 118.252 83.6784C118.263 83.6808 118.274 83.6827 118.285 83.685C118.334 83.694 118.383 83.7021 118.432 83.7092C118.445 83.7111 118.459 83.713 118.472 83.7148C118.519 83.7215 118.567 83.7267 118.615 83.7314C118.63 83.7328 118.645 83.7343 118.661 83.7357C118.706 83.7399 118.752 83.7423 118.798 83.7447C118.816 83.7456 118.833 83.7466 118.85 83.747C118.894 83.7489 118.939 83.7494 118.983 83.7494C119.002 83.7494 119.021 83.7494 119.04 83.7489C119.083 83.7485 119.126 83.7466 119.169 83.7447C119.189 83.7432 119.21 83.7428 119.231 83.7414C119.272 83.7385 119.313 83.7347 119.355 83.7305C119.377 83.7281 119.399 83.7262 119.421 83.7238C119.461 83.7191 119.502 83.713 119.542 83.7068C119.565 83.7035 119.588 83.7006 119.611 83.6964C119.65 83.6898 119.69 83.6817 119.73 83.6737C119.753 83.6689 119.777 83.6647 119.8 83.6595C119.84 83.6505 119.879 83.6401 119.919 83.6296C119.942 83.624 119.965 83.6188 119.988 83.6121C120.031 83.6003 120.073 83.5866 120.114 83.5733C120.135 83.5672 120.155 83.5615 120.174 83.5549C120.236 83.534 120.298 83.5113 120.359 83.4872C121.216 83.1468 122.052 82.7407 122.854 82.3384C123.013 82.2579 123.172 82.1779 123.33 82.0984C123.644 81.9394 123.953 81.7832 124.254 81.6341C124.678 81.4244 125.058 81.2137 125.407 81.0031C125.424 80.9927 125.44 80.9823 125.457 80.9718C126.185 81.4187 127.069 81.6809 128.021 81.6809C129.003 81.6809 129.911 81.4016 130.653 80.9292C131.006 81.1394 131.392 81.3491 131.822 81.5569C131.974 81.6303 132.127 81.7055 132.283 81.7822C133.212 82.2395 134.2 82.7421 135.222 83.17C135.392 83.2415 135.564 83.3111 135.736 83.3774C135.798 83.4015 135.859 83.4233 135.921 83.4436C135.941 83.4503 135.961 83.4555 135.98 83.4616C135.982 83.4621 135.984 83.4626 135.985 83.463C136.005 83.4692 136.024 83.4749 136.044 83.4805C136.066 83.4867 136.087 83.4938 136.108 83.4995C136.131 83.5056 136.154 83.5108 136.176 83.5165C136.215 83.526 136.253 83.5359 136.292 83.5444C136.296 83.5454 136.299 83.5459 136.302 83.5468C136.324 83.5511 136.345 83.5544 136.366 83.5586C136.406 83.5667 136.446 83.5743 136.486 83.5809C136.508 83.5847 136.529 83.587 136.551 83.5904C136.569 83.5927 136.587 83.5956 136.605 83.5979C136.629 83.6008 136.653 83.6041 136.676 83.6065C136.698 83.6088 136.72 83.6107 136.742 83.6126C136.78 83.6159 136.818 83.6197 136.856 83.6221C136.863 83.6225 136.869 83.623 136.875 83.623C136.893 83.624 136.911 83.6244 136.929 83.6249C136.972 83.6268 137.014 83.6282 137.058 83.6287C137.077 83.6287 137.095 83.6287 137.115 83.6282H137.12C137.135 83.6282 137.15 83.6282 137.165 83.6278C137.192 83.6273 137.22 83.6263 137.248 83.6254C137.265 83.6244 137.282 83.6235 137.299 83.6225C137.339 83.6202 137.378 83.6178 137.417 83.6145C137.426 83.6136 137.435 83.6126 137.443 83.6117C137.456 83.6107 137.47 83.6093 137.483 83.6074C137.53 83.6027 137.578 83.597 137.625 83.5899C137.639 83.588 137.651 83.5861 137.665 83.5842C137.672 83.5828 137.68 83.5818 137.688 83.5804C137.696 83.5795 137.704 83.5781 137.712 83.5766C137.746 83.5714 137.779 83.5648 137.812 83.5582C137.823 83.5563 137.834 83.5539 137.845 83.5515C137.885 83.5435 137.924 83.535 137.964 83.5255C137.973 83.5231 137.983 83.5208 137.992 83.5184C137.994 83.5179 137.995 83.5175 137.996 83.5175C138.005 83.5151 138.014 83.5127 138.022 83.5108C138.075 83.4976 138.127 83.4829 138.179 83.4673C138.185 83.4654 138.192 83.4635 138.198 83.4616C138.251 83.445 138.305 83.4271 138.358 83.4081C138.362 83.4067 138.366 83.4053 138.371 83.4034C138.41 83.3892 138.449 83.3745 138.487 83.3589C138.494 83.3561 138.5 83.3537 138.507 83.3513C138.516 83.3475 138.524 83.3437 138.533 83.34C138.535 83.339 138.537 83.3385 138.54 83.3376C138.69 83.2742 138.835 83.2013 138.974 83.1189C138.977 83.117 138.98 83.1151 138.984 83.1132C139.135 83.0233 139.278 82.922 139.412 82.8112C139.413 82.8103 139.414 82.8094 139.415 82.8084C139.873 82.4264 140.22 81.9261 140.382 81.3363C140.786 79.8713 139.128 76.9631 139.128 76.9631C139.099 75.6709 140.711 74.3716 140.339 73.0756C140.165 72.4683 139.796 71.9581 139.312 71.5756L125.375 59.1869Z" fill="url(#paint6_linear_2_1509)"/>
<path d="M96.3699 67.2357V62.0513C96.3699 61.3824 96.9796 60.8405 97.7326 60.8405H164.804C165.556 60.8405 166.166 61.3824 166.166 62.0513V67.2357C166.166 67.9046 165.557 68.447 164.804 68.447H97.7326C96.9796 68.447 96.3699 67.9046 96.3699 67.2357V67.2357Z" fill="url(#paint7_linear_2_1509)"/>
<path d="M120.978 68.447H134.671L126.113 60.8405H120.978V68.447Z" fill="url(#paint8_linear_2_1509)"/>
<path d="M116.723 86.1323H110.89C110.138 86.1323 109.528 85.5899 109.528 84.921V51.2113C109.528 50.5424 110.138 50 110.89 50H116.723C117.475 50 118.086 50.542 118.086 51.2113V84.921C118.086 85.5899 117.475 86.1323 116.723 86.1323V86.1323Z" fill="url(#paint9_linear_2_1509)"/>
<path d="M109.528 69.2168L118.086 76.8238V65.9115H109.528V69.2168Z" fill="url(#paint10_linear_2_1509)"/>
<path d="M112.702 62.0253C111.953 61.4743 111.129 60.9144 109.992 60.3653C108.78 59.7793 107.455 59.0778 106.078 58.5444C104.155 57.7998 101.931 58.7754 101.432 60.5864C101.074 61.8857 102.699 63.1717 102.684 64.4639C102.684 64.4639 101.056 67.3854 101.476 68.8471C101.993 70.6538 104.228 71.6109 106.143 70.8502C107.514 70.3054 108.832 69.593 110.038 68.9971C111.168 68.4381 111.986 67.8715 112.731 67.3144C114.579 65.9304 114.566 63.3937 112.702 62.0253Z" fill="url(#paint11_linear_2_1509)"/>
<path d="M124.913 64.3264C124.884 63.0341 126.496 61.7344 126.124 60.4384C125.606 58.6316 123.371 57.6745 121.457 58.4352C120.085 58.98 118.767 59.6924 117.562 60.2883C116.431 60.8473 115.613 61.4139 114.869 61.9705C113.02 63.3551 113.034 65.8917 114.897 67.2601C115.647 67.8106 116.471 68.3706 117.608 68.9201C118.82 69.5061 120.144 70.2071 121.521 70.7406C123.444 71.4856 125.669 70.5101 126.168 68.6991C126.571 67.2341 124.913 64.3264 124.913 64.3264Z" fill="url(#paint12_linear_2_1509)"/>
<path d="M112.73 67.3152C113.319 66.8741 113.718 66.316 113.929 65.7163C110.509 66.0032 105.17 67.0559 103.172 70.7607C104.056 71.1763 105.143 71.2477 106.142 70.8506C107.513 70.3058 108.831 69.5934 110.037 68.998C111.168 68.439 111.985 67.8719 112.73 67.3152Z" fill="url(#paint13_linear_2_1509)"/>
<path d="M104.1 64.4664C104.106 65.6829 104.286 69.0289 108.061 69.9884C108.745 69.6533 109.407 69.3096 110.038 68.9977C111.169 68.4392 111.987 67.8721 112.731 67.3155C113.767 66.5397 114.218 65.4018 114.087 64.3102C114.087 64.3102 112.105 63.3697 111.226 62.9958C106.473 60.9737 104.091 62.7548 104.1 64.4664Z" fill="url(#paint14_linear_2_1509)"/>
<path d="M114.896 67.261C114.302 66.8246 113.897 66.2703 113.68 65.672C117.102 65.9304 122.453 66.9387 124.489 70.6269C123.609 71.0496 122.524 71.1301 121.52 70.7415C120.143 70.208 118.818 69.5065 117.606 68.921C116.469 68.3714 115.646 67.8115 114.896 67.261Z" fill="url(#paint15_linear_2_1509)"/>
<path d="M123.498 64.34C123.504 65.5565 123.36 68.9039 119.595 69.8946C118.907 69.5652 118.242 69.2272 117.607 68.9205C116.471 68.3714 115.647 67.8115 114.897 67.2605C113.852 66.4937 113.39 65.3596 113.509 64.2666C113.509 64.2666 115.481 63.31 116.357 62.9285C121.088 60.8671 123.489 62.6289 123.498 64.34Z" fill="url(#paint16_linear_2_1509)"/>
<path d="M125.575 69.8032L117.111 62.2805C116.714 61.9027 116.236 61.5941 115.701 61.374C115.408 61.5738 115.134 61.773 114.869 61.9709C113.02 63.3549 113.034 65.8916 114.897 67.2605C115.647 67.811 116.471 68.3709 117.608 68.9205C118.819 69.506 120.145 70.2075 121.522 70.7409C123.003 71.3146 124.662 70.8668 125.575 69.8032Z" fill="url(#paint17_linear_2_1509)"/>
<path d="M118.325 65.0247C118.325 67.2447 116.3 69.0448 113.803 69.0448C111.305 69.0448 109.28 67.2447 109.28 65.0247C109.28 62.8043 111.305 61.0046 113.803 61.0046C116.3 61.0046 118.325 62.8043 118.325 65.0247Z" fill="url(#paint18_linear_2_1509)"/>
<path d="M119.617 72.5361C119.617 72.4272 119.689 72.3335 119.832 72.2545C119.975 72.1759 120.128 72.1366 120.292 72.1366C120.496 72.1366 120.622 72.2033 120.67 72.3363L122.356 77.5133L124.032 72.3363C124.079 72.2033 124.2 72.1366 124.397 72.1366C124.559 72.1366 124.713 72.1759 124.859 72.2545C125.005 72.3326 125.078 72.4263 125.078 72.5347C125.078 72.5527 125.071 72.5801 125.057 72.6161L123.035 78.5021C123.001 78.6052 122.92 78.6862 122.791 78.7439C122.663 78.8017 122.518 78.8306 122.356 78.8306C121.981 78.8306 121.753 78.7212 121.671 78.5035L119.627 72.618C119.621 72.5995 119.617 72.5725 119.617 72.5361Z" fill="url(#paint19_linear_2_1509)"/>
<path d="M125.822 76.8051V74.162C125.822 73.4657 126.03 72.9541 126.445 72.627C126.861 72.2999 127.416 72.1366 128.111 72.1366C128.806 72.1366 129.362 72.2999 129.781 72.627C130.201 72.9541 130.41 73.4657 130.41 74.162V76.8051C130.41 77.5014 130.201 78.0131 129.781 78.3397C129.362 78.6668 128.806 78.8306 128.111 78.8306C127.416 78.8306 126.861 78.6668 126.445 78.3397C126.029 78.0131 125.822 77.5014 125.822 76.8051ZM126.905 76.8051C126.905 77.5861 127.307 77.9766 128.111 77.9766C128.499 77.9766 128.799 77.8796 129.01 77.686C129.221 77.4924 129.327 77.1985 129.327 76.8051V74.162C129.327 73.7682 129.221 73.4747 129.01 73.2811C128.799 73.0871 128.499 72.9905 128.111 72.9905C127.307 72.9905 126.905 73.381 126.905 74.162V76.8051Z" fill="url(#paint20_linear_2_1509)"/>
<path d="M131.647 76.8056V72.4457C131.647 72.343 131.7 72.2653 131.805 72.2142C131.911 72.1626 132.038 72.1371 132.189 72.1371C132.338 72.1371 132.466 72.1626 132.571 72.2142C132.677 72.2653 132.73 72.343 132.73 72.4457V76.8056C132.73 77.199 132.839 77.4929 133.057 77.6865C133.275 77.8801 133.582 77.9771 133.977 77.9771C134.814 77.9771 135.233 77.5866 135.233 76.8051V72.4457C135.233 72.3425 135.286 72.2653 135.392 72.2138C135.498 72.1626 135.625 72.1366 135.775 72.1366C135.925 72.1366 136.052 72.1626 136.158 72.2138C136.264 72.2653 136.317 72.3425 136.317 72.4457V76.8051C136.317 77.5019 136.104 78.0131 135.678 78.3402C135.252 78.6673 134.685 78.8306 133.977 78.8306C133.275 78.8306 132.711 78.6673 132.285 78.3402C131.859 78.0136 131.647 77.5019 131.647 76.8056V76.8056Z" fill="url(#paint21_linear_2_1509)"/>
<path d="M137.562 76.8051V74.162C137.562 73.4657 137.771 72.9541 138.19 72.627C138.609 72.2999 139.156 72.1366 139.83 72.1366C140.525 72.1366 141.085 72.2895 141.511 72.5948C141.937 72.901 142.149 73.2958 142.149 73.78C142.149 73.9741 142.109 74.1057 142.027 74.1753C141.945 74.2448 141.805 74.2799 141.608 74.2799C141.254 74.2799 141.073 74.1738 141.066 73.9618C141.026 73.3143 140.627 72.99 139.871 72.99C139.053 72.99 138.645 73.3805 138.645 74.162V76.8051C138.645 77.5861 139.06 77.9766 139.891 77.9766C140.136 77.9766 140.341 77.9449 140.504 77.8815C140.668 77.8176 140.786 77.7253 140.857 77.6041C140.928 77.4834 140.978 77.3774 141.005 77.2865C141.032 77.1956 141.053 77.0835 141.066 76.9505C141.087 76.7384 141.264 76.6324 141.598 76.6324C141.795 76.6324 141.937 76.6674 142.022 76.737C142.107 76.8066 142.149 76.9381 142.149 77.1322C142.149 77.6349 141.935 78.0434 141.506 78.3582C141.077 78.6729 140.515 78.8306 139.82 78.8306C139.145 78.8306 138.601 78.6668 138.185 78.3397C137.769 78.0131 137.562 77.5014 137.562 76.8051V76.8051Z" fill="url(#paint22_linear_2_1509)"/>
<path d="M143.16 78.458V72.4452C143.16 72.3425 143.213 72.2653 143.319 72.2138C143.424 72.1626 143.552 72.1366 143.702 72.1366C143.852 72.1366 143.979 72.1622 144.085 72.2138C144.19 72.2653 144.244 72.3425 144.244 72.4452V74.952H146.788V72.4452C146.788 72.3425 146.841 72.2653 146.946 72.2138C147.051 72.1626 147.179 72.1366 147.329 72.1366C147.479 72.1366 147.607 72.1622 147.712 72.2138C147.818 72.2653 147.87 72.3425 147.87 72.4452V78.458C147.87 78.5551 147.818 78.6322 147.712 78.6895C147.607 78.7472 147.479 78.7761 147.329 78.7761C147.186 78.7761 147.06 78.7472 146.951 78.6895C146.842 78.6322 146.788 78.5551 146.788 78.458V75.715H144.244V78.458C144.244 78.5551 144.19 78.6322 144.085 78.6895C143.979 78.7472 143.852 78.7761 143.702 78.7761C143.559 78.7761 143.433 78.7472 143.324 78.6895C143.215 78.6322 143.16 78.5551 143.16 78.458V78.458Z" fill="url(#paint23_linear_2_1509)"/>
<path d="M149.22 78.458V72.4542C149.22 72.3576 149.268 72.2805 149.364 72.2227C149.459 72.165 149.571 72.1366 149.701 72.1366H153.338C153.454 72.1366 153.543 72.1787 153.604 72.2635C153.665 72.3482 153.696 72.4452 153.696 72.5541C153.696 72.6753 153.664 72.7784 153.599 72.8632C153.534 72.9479 153.447 72.99 153.338 72.99H150.304V75.0703H151.877C151.986 75.0703 152.073 75.1082 152.138 75.1835C152.202 75.2597 152.235 75.3515 152.235 75.4609C152.235 75.5574 152.204 75.644 152.143 75.7198C152.082 75.7955 151.993 75.8329 151.877 75.8329H150.304V77.9222H153.338C153.447 77.9222 153.534 77.9643 153.599 78.0491C153.664 78.1343 153.696 78.237 153.696 78.3582C153.696 78.467 153.665 78.5641 153.604 78.6488C153.543 78.7335 153.454 78.7756 153.338 78.7756H149.701C149.571 78.7756 149.459 78.7472 149.364 78.6895C149.268 78.6322 149.22 78.5551 149.22 78.458Z" fill="url(#paint24_linear_2_1509)"/>
<path d="M154.564 78.458V72.4452C154.564 72.3605 154.598 72.2881 154.667 72.2275C154.734 72.1669 154.82 72.1366 154.922 72.1366H156.863C158.43 72.1366 159.213 72.7543 159.213 73.9892C159.213 74.5019 159.084 74.9042 158.825 75.1967C158.566 75.4893 158.215 75.6838 157.773 75.7804L159.203 78.1745C159.23 78.2171 159.244 78.2625 159.244 78.3113C159.244 78.4325 159.174 78.5447 159.035 78.6483C158.895 78.7515 158.747 78.8031 158.59 78.8031C158.413 78.8031 158.27 78.7089 158.161 78.521L156.669 75.9148H155.637V78.4571C155.637 78.5541 155.584 78.6317 155.479 78.6895C155.373 78.7472 155.246 78.7761 155.095 78.7761C154.953 78.7761 154.828 78.7472 154.723 78.6895C154.617 78.6322 154.564 78.5551 154.564 78.458ZM155.637 75.1518H156.863C157.708 75.1518 158.131 74.792 158.131 74.0711C158.131 73.3507 157.708 72.99 156.863 72.99H155.637V75.1518Z" fill="url(#paint25_linear_2_1509)"/>
<path d="M245.994 14.4184C246.177 14.4184 246.326 14.2866 246.326 14.124L246.326 12.7504C246.326 12.4715 246.071 12.2453 245.757 12.2453L231.203 12.2444C230.889 12.2444 230.635 12.4706 230.635 12.7495V14.1229C230.635 14.2856 230.783 14.4175 230.966 14.4176C231.149 14.4176 231.297 14.5495 231.297 14.7121L231.297 17.419C231.297 17.5816 231.149 17.7135 230.966 17.7135C230.783 17.7135 230.634 17.8454 230.634 18.0081L230.634 19.3817C230.634 19.6606 230.888 19.8866 231.202 19.8867L245.757 19.8876C246.071 19.8876 246.325 19.6615 246.325 19.3826L246.325 18.0091C246.325 17.8464 246.177 17.7145 245.994 17.7145C245.811 17.7145 245.663 17.5826 245.663 17.4198L245.663 14.713C245.663 14.5503 245.811 14.4184 245.994 14.4184V14.4184Z" fill="url(#paint26_linear_2_1509)"/>
<path d="M230.634 18.1041L230.634 19.3817C230.634 19.6606 230.888 19.8867 231.202 19.8868L245.757 19.8876C246.071 19.8876 246.325 19.6616 246.325 19.3826L246.325 18.1042H230.634V18.1041Z" fill="url(#paint27_linear_2_1509)"/>
<path d="M231.273 16.1517L232.316 17.0791V16.1517H231.273Z" fill="url(#paint28_linear_2_1509)"/>
<path d="M235.512 12.2727L236.642 13.2768H235.512V12.2727Z" fill="url(#paint29_linear_2_1509)"/>
<path d="M244.728 18.9533H232.373C232.168 18.9533 232.001 18.8051 232.001 18.6221V13.5103C232.001 13.3273 232.168 13.179 232.373 13.179H244.728C244.934 13.179 245.101 13.3273 245.101 13.5103V18.6221C245.101 18.805 244.934 18.9533 244.728 18.9533V18.9533Z" fill="url(#paint30_linear_2_1509)"/>
<path d="M237.153 14.0677C236.94 13.8553 236.586 13.7733 236.271 13.8986C235.962 14.0213 235.666 14.1816 235.394 14.3157C235.23 14.3967 235.096 14.4786 234.976 14.5601C234.846 14.5067 234.701 14.4768 234.549 14.4768C234.389 14.4768 234.238 14.5096 234.103 14.5679C233.985 14.4894 233.852 14.4108 233.691 14.333C233.418 14.2013 233.12 14.0434 232.81 13.9233C232.377 13.7556 231.877 13.9752 231.764 14.3828C231.684 14.6752 232.05 14.9647 232.046 15.2555C232.046 15.2555 231.68 15.913 231.774 16.2421C231.813 16.3782 231.896 16.4926 232.004 16.5785L235.078 19.311C235.098 19.3308 235.119 19.3493 235.141 19.3668C235.202 19.4283 235.275 19.4789 235.356 19.5167C235.368 19.5225 235.381 19.528 235.393 19.5331C235.394 19.5333 235.394 19.5335 235.395 19.5336C235.407 19.5386 235.419 19.5433 235.431 19.5477C235.432 19.548 235.433 19.5483 235.434 19.5486C235.446 19.5528 235.458 19.5567 235.47 19.5604C235.472 19.5608 235.473 19.5612 235.475 19.5616C235.486 19.565 235.498 19.5681 235.51 19.5711C235.512 19.5715 235.514 19.5721 235.516 19.5725C235.527 19.5753 235.539 19.5777 235.55 19.58C235.552 19.5805 235.555 19.5809 235.557 19.5815C235.568 19.5835 235.579 19.5853 235.591 19.5869C235.594 19.5873 235.597 19.5877 235.6 19.5882C235.61 19.5897 235.621 19.5908 235.632 19.5919C235.635 19.5922 235.638 19.5925 235.642 19.5929C235.652 19.5938 235.663 19.5943 235.673 19.5949C235.677 19.5951 235.681 19.5953 235.685 19.5954C235.695 19.5958 235.705 19.5959 235.715 19.5959C235.719 19.5959 235.723 19.5959 235.727 19.5958C235.737 19.5957 235.747 19.5953 235.756 19.5949C235.761 19.5946 235.766 19.5944 235.77 19.5941C235.78 19.5935 235.789 19.5926 235.798 19.5917C235.803 19.5911 235.808 19.5907 235.813 19.5902C235.822 19.5891 235.831 19.5877 235.84 19.5864C235.846 19.5856 235.851 19.585 235.856 19.584C235.865 19.5825 235.874 19.5807 235.883 19.5789C235.888 19.5778 235.893 19.5769 235.898 19.5757C235.907 19.5737 235.916 19.5713 235.925 19.569C235.93 19.5677 235.936 19.5665 235.941 19.565C235.95 19.5624 235.96 19.5593 235.969 19.5563C235.974 19.5549 235.978 19.5536 235.983 19.5522C235.997 19.5475 236.01 19.5424 236.024 19.5369C236.217 19.4603 236.405 19.3689 236.586 19.2784C236.622 19.2602 236.657 19.2422 236.693 19.2243C236.764 19.1886 236.833 19.1534 236.901 19.1198C236.996 19.0726 237.082 19.0252 237.16 18.9778C237.164 18.9755 237.168 18.9731 237.172 18.9708C237.336 19.0714 237.534 19.1304 237.749 19.1304C237.97 19.1304 238.174 19.0675 238.341 18.9612C238.421 19.0085 238.507 19.0557 238.604 19.1025C238.638 19.119 238.673 19.1359 238.708 19.1532C238.917 19.2561 239.139 19.3692 239.369 19.4655C239.408 19.4816 239.446 19.4973 239.485 19.5122C239.499 19.5176 239.513 19.5225 239.527 19.5271C239.531 19.5286 239.536 19.5298 239.54 19.5312C239.54 19.5313 239.541 19.5314 239.541 19.5315C239.546 19.5329 239.55 19.5341 239.554 19.5354C239.559 19.5368 239.564 19.5384 239.569 19.5397C239.574 19.5411 239.579 19.5422 239.584 19.5435C239.593 19.5457 239.602 19.5479 239.61 19.5498C239.611 19.55 239.612 19.5501 239.613 19.5503C239.617 19.5513 239.622 19.552 239.627 19.553C239.636 19.5548 239.645 19.5565 239.654 19.558C239.659 19.5589 239.664 19.5594 239.669 19.5601C239.673 19.5607 239.677 19.5613 239.681 19.5618C239.686 19.5625 239.691 19.5632 239.697 19.5638C239.702 19.5643 239.707 19.5647 239.711 19.5652C239.72 19.5659 239.729 19.5667 239.737 19.5673C239.739 19.5674 239.74 19.5675 239.741 19.5675C239.746 19.5677 239.749 19.5678 239.754 19.5679C239.763 19.5683 239.773 19.5687 239.783 19.5688C239.787 19.5688 239.791 19.5688 239.795 19.5687H239.797C239.8 19.5687 239.803 19.5687 239.807 19.5686C239.813 19.5685 239.819 19.5682 239.825 19.568C239.829 19.5678 239.833 19.5676 239.837 19.5674C239.846 19.5669 239.855 19.5663 239.863 19.5656C239.865 19.5654 239.867 19.5652 239.869 19.5649C239.872 19.5647 239.875 19.5644 239.878 19.564C239.889 19.5629 239.9 19.5616 239.91 19.56C239.913 19.5596 239.916 19.5592 239.919 19.5588C239.921 19.5584 239.923 19.5582 239.924 19.5579C239.926 19.5577 239.928 19.5574 239.93 19.5571C239.937 19.5559 239.945 19.5544 239.952 19.5529C239.955 19.5525 239.957 19.5519 239.96 19.5514C239.969 19.5496 239.978 19.5477 239.987 19.5455C239.989 19.545 239.991 19.5445 239.993 19.544C239.993 19.5438 239.994 19.5437 239.994 19.5437C239.996 19.5432 239.998 19.5427 240 19.5422C240.012 19.5393 240.023 19.536 240.035 19.5324C240.036 19.532 240.038 19.5316 240.039 19.5312C240.051 19.5274 240.063 19.5234 240.075 19.5191C240.076 19.5188 240.077 19.5185 240.078 19.5181C240.087 19.5149 240.096 19.5116 240.104 19.508C240.106 19.5074 240.107 19.5069 240.109 19.5063C240.111 19.5055 240.113 19.5046 240.115 19.5038C240.115 19.5036 240.116 19.5035 240.116 19.5033C240.15 19.489 240.183 19.4726 240.214 19.454C240.215 19.4536 240.215 19.4532 240.216 19.4528C240.25 19.4325 240.282 19.4097 240.312 19.3848C240.313 19.3846 240.313 19.3844 240.313 19.3841C240.416 19.2982 240.494 19.1856 240.531 19.0528C240.622 18.7231 240.249 18.0686 240.249 18.0686C240.242 17.7777 240.605 17.4853 240.521 17.1936C240.482 17.0569 240.399 16.9421 240.29 16.856L237.153 14.0677Z" fill="url(#paint31_linear_2_1509)"/>
<path d="M230.625 15.8793V14.7125C230.625 14.5619 230.762 14.4399 230.932 14.4399H246.027C246.197 14.4399 246.334 14.5619 246.334 14.7125V15.8793C246.334 16.0299 246.197 16.1519 246.027 16.1519H230.932C230.762 16.1519 230.625 16.0299 230.625 15.8793V15.8793Z" fill="url(#paint32_linear_2_1509)"/>
<path d="M236.163 16.1519H239.245L237.319 14.4399H236.163V16.1519Z" fill="url(#paint33_linear_2_1509)"/>
<path d="M235.206 20.1323H233.893C233.724 20.1323 233.587 20.0102 233.587 19.8597V12.2726C233.587 12.1221 233.724 12 233.893 12H235.206C235.375 12 235.513 12.122 235.513 12.2726V19.8597C235.513 20.0102 235.375 20.1323 235.206 20.1323V20.1323Z" fill="url(#paint34_linear_2_1509)"/>
<path d="M233.587 16.3251L235.513 18.0372V15.5812H233.587V16.3251Z" fill="url(#paint35_linear_2_1509)"/>
<path d="M234.301 14.7065C234.132 14.5825 233.947 14.4565 233.691 14.3329C233.418 14.201 233.12 14.0431 232.81 13.9231C232.377 13.7555 231.877 13.9751 231.764 14.3827C231.684 14.6751 232.05 14.9645 232.046 15.2554C232.046 15.2554 231.68 15.9129 231.774 16.2419C231.891 16.6485 232.394 16.8639 232.825 16.6927C233.133 16.5701 233.43 16.4098 233.701 16.2757C233.956 16.1498 234.14 16.0223 234.307 15.8969C234.723 15.5854 234.72 15.0145 234.301 14.7065Z" fill="url(#paint36_linear_2_1509)"/>
<path d="M237.049 15.2243C237.043 14.9335 237.405 14.641 237.322 14.3493C237.205 13.9426 236.702 13.7272 236.271 13.8984C235.963 14.021 235.666 14.1814 235.395 14.3155C235.14 14.4413 234.956 14.5688 234.789 14.6941C234.373 15.0057 234.376 15.5767 234.795 15.8846C234.964 16.0085 235.149 16.1346 235.405 16.2583C235.678 16.3901 235.976 16.5479 236.286 16.668C236.719 16.8357 237.219 16.6161 237.332 16.2085C237.422 15.8788 237.049 15.2243 237.049 15.2243Z" fill="url(#paint37_linear_2_1509)"/>
<path d="M234.307 15.8972C234.44 15.7979 234.529 15.6723 234.577 15.5374C233.807 15.6019 232.606 15.8388 232.156 16.6727C232.355 16.7662 232.599 16.7823 232.824 16.6929C233.133 16.5703 233.43 16.41 233.701 16.276C233.956 16.1501 234.14 16.0225 234.307 15.8972Z" fill="url(#paint38_linear_2_1509)"/>
<path d="M232.365 15.2559C232.366 15.5297 232.407 16.2828 233.256 16.4988C233.41 16.4233 233.559 16.346 233.701 16.2758C233.956 16.1501 234.14 16.0225 234.307 15.8972C234.541 15.7226 234.642 15.4665 234.613 15.2208C234.613 15.2208 234.167 15.0091 233.969 14.9249C232.899 14.4698 232.363 14.8707 232.365 15.2559Z" fill="url(#paint39_linear_2_1509)"/>
<path d="M234.795 15.8849C234.661 15.7866 234.57 15.6619 234.521 15.5272C235.291 15.5854 236.496 15.8123 236.954 16.6424C236.756 16.7376 236.512 16.7557 236.286 16.6682C235.976 16.5481 235.677 16.3903 235.405 16.2585C235.149 16.1348 234.963 16.0088 234.795 15.8849Z" fill="url(#paint40_linear_2_1509)"/>
<path d="M236.731 15.2275C236.732 15.5013 236.7 16.2547 235.852 16.4777C235.698 16.4036 235.548 16.3275 235.405 16.2585C235.149 16.1349 234.964 16.0088 234.795 15.8848C234.56 15.7123 234.456 15.457 234.483 15.211C234.483 15.211 234.926 14.9957 235.124 14.9098C236.188 14.4459 236.729 14.8424 236.731 15.2275Z" fill="url(#paint41_linear_2_1509)"/>
<path d="M237.198 16.4571L235.293 14.7639C235.204 14.6789 235.096 14.6095 234.976 14.5599C234.91 14.6049 234.848 14.6497 234.789 14.6943C234.373 15.0058 234.376 15.5767 234.795 15.8848C234.964 16.0087 235.149 16.1347 235.405 16.2584C235.678 16.3902 235.976 16.5481 236.286 16.6681C236.619 16.7973 236.993 16.6965 237.198 16.4571Z" fill="url(#paint42_linear_2_1509)"/>
<path d="M235.566 15.3817C235.566 15.8814 235.11 16.2865 234.548 16.2865C233.986 16.2865 233.53 15.8814 233.53 15.3817C233.53 14.882 233.986 14.4769 234.548 14.4769C235.11 14.4769 235.566 14.882 235.566 15.3817Z" fill="url(#paint43_linear_2_1509)"/>
<path d="M235.857 17.0722C235.857 17.0477 235.873 17.0266 235.905 17.0088C235.938 16.9911 235.972 16.9823 236.009 16.9823C236.055 16.9823 236.083 16.9973 236.094 17.0273L236.474 18.1924L236.851 17.0273C236.861 16.9973 236.889 16.9823 236.933 16.9823C236.97 16.9823 237.004 16.9911 237.037 17.0088C237.07 17.0264 237.086 17.0475 237.086 17.0719C237.086 17.0759 237.085 17.0821 237.082 17.0902L236.627 18.415C236.619 18.4382 236.6 18.4564 236.572 18.4694C236.543 18.4824 236.51 18.4889 236.474 18.4889C236.389 18.4889 236.338 18.4643 236.319 18.4153L235.859 17.0906C235.858 17.0865 235.857 17.0804 235.857 17.0722Z" fill="url(#paint44_linear_2_1509)"/>
<path d="M237.254 18.033V17.4382C237.254 17.2814 237.3 17.1663 237.394 17.0927C237.487 17.0191 237.612 16.9823 237.769 16.9823C237.925 16.9823 238.05 17.0191 238.145 17.0927C238.239 17.1663 238.286 17.2814 238.286 17.4382V18.033C238.286 18.1898 238.239 18.3049 238.145 18.3784C238.05 18.452 237.925 18.4889 237.769 18.4889C237.612 18.4889 237.487 18.452 237.394 18.3784C237.3 18.3049 237.254 18.1898 237.254 18.033ZM237.497 18.033C237.497 18.2088 237.588 18.2967 237.769 18.2967C237.856 18.2967 237.924 18.2749 237.971 18.2313C238.019 18.1877 238.042 18.1216 238.042 18.033V17.4382C238.042 17.3495 238.019 17.2835 237.971 17.2399C237.924 17.1962 237.856 17.1745 237.769 17.1745C237.588 17.1745 237.497 17.2624 237.497 17.4382V18.033Z" fill="url(#paint45_linear_2_1509)"/>
<path d="M238.565 18.0332V17.0519C238.565 17.0287 238.577 17.0113 238.601 16.9998C238.624 16.9882 238.653 16.9824 238.687 16.9824C238.721 16.9824 238.749 16.9882 238.773 16.9998C238.797 17.0113 238.809 17.0287 238.809 17.0519V18.0332C238.809 18.1217 238.833 18.1878 238.882 18.2314C238.931 18.275 239 18.2968 239.089 18.2968C239.278 18.2968 239.372 18.2089 239.372 18.033V17.0519C239.372 17.0286 239.384 17.0113 239.408 16.9997C239.432 16.9882 239.46 16.9823 239.494 16.9823C239.528 16.9823 239.556 16.9882 239.58 16.9997C239.604 17.0113 239.616 17.0286 239.616 17.0519V18.033C239.616 18.1899 239.568 18.3049 239.472 18.3785C239.376 18.4522 239.249 18.4889 239.089 18.4889C238.931 18.4889 238.805 18.4522 238.709 18.3785C238.613 18.305 238.565 18.1899 238.565 18.0332V18.0332Z" fill="url(#paint46_linear_2_1509)"/>
<path d="M239.896 18.033V17.4382C239.896 17.2814 239.943 17.1663 240.038 17.0927C240.132 17.0191 240.255 16.9823 240.407 16.9823C240.563 16.9823 240.689 17.0167 240.785 17.0854C240.881 17.1544 240.929 17.2432 240.929 17.3522C240.929 17.3959 240.92 17.4255 240.901 17.4411C240.883 17.4568 240.851 17.4647 240.807 17.4647C240.727 17.4647 240.687 17.4408 240.685 17.3931C240.676 17.2474 240.586 17.1744 240.416 17.1744C240.232 17.1744 240.14 17.2623 240.14 17.4382V18.033C240.14 18.2088 240.234 18.2967 240.421 18.2967C240.476 18.2967 240.522 18.2896 240.559 18.2753C240.595 18.2609 240.622 18.2402 240.638 18.2129C240.654 18.1857 240.665 18.1618 240.671 18.1414C240.677 18.1209 240.682 18.0957 240.685 18.0658C240.69 18.018 240.729 17.9942 240.805 17.9942C240.849 17.9942 240.881 18.002 240.9 18.0177C240.919 18.0334 240.929 18.063 240.929 18.1067C240.929 18.2198 240.88 18.3117 240.784 18.3826C240.687 18.4534 240.561 18.4889 240.405 18.4889C240.253 18.4889 240.13 18.452 240.037 18.3784C239.943 18.3049 239.896 18.1898 239.896 18.033V18.033Z" fill="url(#paint47_linear_2_1509)"/>
<path d="M241.156 18.4051V17.0518C241.156 17.0286 241.168 17.0113 241.192 16.9997C241.216 16.9882 241.244 16.9823 241.278 16.9823C241.312 16.9823 241.341 16.9881 241.364 16.9997C241.388 17.0113 241.4 17.0286 241.4 17.0518V17.616H241.973V17.0518C241.973 17.0286 241.985 17.0113 242.008 16.9997C242.032 16.9882 242.061 16.9823 242.095 16.9823C242.128 16.9823 242.157 16.9881 242.181 16.9997C242.204 17.0113 242.216 17.0286 242.216 17.0518V18.4051C242.216 18.4269 242.204 18.4443 242.181 18.4572C242.157 18.4702 242.128 18.4767 242.095 18.4767C242.062 18.4767 242.034 18.4702 242.009 18.4572C241.985 18.4443 241.973 18.4269 241.973 18.4051V17.7877H241.4V18.4051C241.4 18.4269 241.388 18.4443 241.364 18.4572C241.341 18.4702 241.312 18.4767 241.278 18.4767C241.246 18.4767 241.217 18.4702 241.193 18.4572C241.168 18.4443 241.156 18.4269 241.156 18.4051V18.4051Z" fill="url(#paint48_linear_2_1509)"/>
<path d="M242.52 18.4051V17.0538C242.52 17.0321 242.531 17.0147 242.553 17.0017C242.574 16.9887 242.599 16.9823 242.628 16.9823H243.447C243.473 16.9823 243.493 16.9918 243.507 17.0109C243.521 17.0299 243.528 17.0518 243.528 17.0763C243.528 17.1035 243.52 17.1268 243.506 17.1458C243.491 17.1649 243.472 17.1744 243.447 17.1744H242.764V17.6426H243.118C243.143 17.6426 243.162 17.6511 243.177 17.6681C243.191 17.6852 243.199 17.7059 243.199 17.7305C243.199 17.7522 243.192 17.7717 243.178 17.7888C243.164 17.8058 243.144 17.8142 243.118 17.8142H242.764V18.2845H243.447C243.472 18.2845 243.491 18.294 243.506 18.313C243.52 18.3322 243.528 18.3553 243.528 18.3826C243.528 18.4071 243.521 18.4289 243.507 18.448C243.493 18.4671 243.473 18.4766 243.447 18.4766H242.628C242.599 18.4766 242.574 18.4702 242.553 18.4572C242.531 18.4443 242.52 18.4269 242.52 18.4051Z" fill="url(#paint49_linear_2_1509)"/>
<path d="M243.723 18.4051V17.0518C243.723 17.0327 243.73 17.0164 243.746 17.0028C243.761 16.9891 243.78 16.9823 243.803 16.9823H244.24C244.593 16.9823 244.769 17.1213 244.769 17.3993C244.769 17.5147 244.74 17.6052 244.682 17.671C244.624 17.7369 244.545 17.7807 244.445 17.8024L244.767 18.3413C244.773 18.3508 244.776 18.3611 244.776 18.372C244.776 18.3993 244.76 18.4246 244.729 18.4479C244.698 18.4711 244.664 18.4827 244.629 18.4827C244.589 18.4827 244.557 18.4615 244.532 18.4192L244.197 17.8327H243.964V18.4049C243.964 18.4267 243.952 18.4442 243.929 18.4572C243.905 18.4702 243.876 18.4767 243.842 18.4767C243.81 18.4767 243.782 18.4702 243.758 18.4572C243.735 18.4443 243.723 18.4269 243.723 18.4051ZM243.964 17.6609H244.24C244.43 17.6609 244.526 17.58 244.526 17.4177C244.526 17.2556 244.43 17.1744 244.24 17.1744H243.964V17.6609Z" fill="url(#paint50_linear_2_1509)"/>
<defs>
<linearGradient id="paint0_linear_2_1509" x1="143.342" y1="-24.9942" x2="148.95" y2="260.153" gradientUnits="userSpaceOnUse">
<stop stop-color="#FD749B"/>
<stop offset="1" stop-color="#281AC8"/>
</linearGradient>
<linearGradient id="paint1_linear_2_1509" x1="113.19" y1="51.9941" x2="154.844" y2="98.8553" gradientUnits="userSpaceOnUse">
<stop stop-color="#FFD459"/>
<stop offset="0.2296" stop-color="#FFD355"/>
<stop offset="0.4362" stop-color="#FFCF4A"/>
<stop offset="0.634" stop-color="#FFC838"/>
<stop offset="0.825" stop-color="#FFBF1F"/>
<stop offset="1" stop-color="#FFB400"/>
</linearGradient>
<linearGradient id="paint2_linear_2_1509" x1="131.27" y1="80.6238" x2="131.27" y2="86.851" gradientUnits="userSpaceOnUse">
<stop stop-color="#E58200" stop-opacity="0"/>
<stop offset="0.0396" stop-color="#E27F04" stop-opacity="0.039216"/>
<stop offset="0.4671" stop-color="#C15D2F" stop-opacity="0.466667"/>
<stop offset="0.8016" stop-color="#AD4949" stop-opacity="0.8"/>
<stop offset="1" stop-color="#A64153"/>
</linearGradient>
<linearGradient id="paint3_linear_2_1509" x1="102.861" y1="71.0802" x2="101.353" y2="67.2013" gradientUnits="userSpaceOnUse">
<stop stop-color="#E58200" stop-opacity="0"/>
<stop offset="0.0396" stop-color="#E27F04" stop-opacity="0.039216"/>
<stop offset="0.4671" stop-color="#C15D2F" stop-opacity="0.466667"/>
<stop offset="0.8016" stop-color="#AD4949" stop-opacity="0.8"/>
<stop offset="1" stop-color="#A64153"/>
</linearGradient>
<linearGradient id="paint4_linear_2_1509" x1="121.576" y1="55.6363" x2="111.748" y2="47.8229" gradientUnits="userSpaceOnUse">
<stop stop-color="#E58200" stop-opacity="0"/>
<stop offset="0.0396" stop-color="#E27F04" stop-opacity="0.039216"/>
<stop offset="0.4671" stop-color="#C15D2F" stop-opacity="0.466667"/>
<stop offset="0.8016" stop-color="#AD4949" stop-opacity="0.8"/>
<stop offset="1" stop-color="#A64153"/>
</linearGradient>
<linearGradient id="paint5_linear_2_1509" x1="116.922" y1="55.0312" x2="150.701" y2="93.0385" gradientUnits="userSpaceOnUse">
<stop stop-color="#FFFCF8"/>
<stop offset="0.1875" stop-color="#FAF8F6"/>
<stop offset="0.4041" stop-color="#ECEEF2"/>
<stop offset="0.6353" stop-color="#D5DCEA"/>
<stop offset="0.875" stop-color="#B5C4DF"/>
<stop offset="1" stop-color="#A1B5D8"/>
</linearGradient>
<linearGradient id="paint6_linear_2_1509" x1="123.798" y1="76.8352" x2="114.001" y2="51.6429" gradientUnits="userSpaceOnUse">
<stop stop-color="#A1B5D8" stop-opacity="0"/>
<stop offset="0.0343" stop-color="#9FB3D5" stop-opacity="0.035294"/>
<stop offset="0.4515" stop-color="#8898AF" stop-opacity="0.45098"/>
<stop offset="0.788" stop-color="#798898" stop-opacity="0.788235"/>
<stop offset="1" stop-color="#748290"/>
</linearGradient>
<linearGradient id="paint7_linear_2_1509" x1="131.268" y1="63.122" x2="131.268" y2="71.3631" gradientUnits="userSpaceOnUse">
<stop stop-color="#FF6E3A"/>
<stop offset="0.1596" stop-color="#FF6440"/>
<stop offset="0.4266" stop-color="#FF4B52"/>
<stop offset="0.7662" stop-color="#FF216E"/>
<stop offset="1" stop-color="#FF0084"/>
</linearGradient>
<linearGradient id="paint8_linear_2_1509" x1="129.251" y1="69.7148" x2="120.395" y2="59.752" gradientUnits="userSpaceOnUse">
<stop stop-color="#E58200" stop-opacity="0"/>
<stop offset="0.4384" stop-color="#C4602C" stop-opacity="0.439216"/>
<stop offset="0.7953" stop-color="#AE4948" stop-opacity="0.796078"/>
<stop offset="1" stop-color="#A64153"/>
</linearGradient>
<linearGradient id="paint9_linear_2_1509" x1="113.807" y1="65.9695" x2="113.807" y2="94.3643" gradientUnits="userSpaceOnUse">
<stop stop-color="#FF6E3A"/>
<stop offset="0.1596" stop-color="#FF6440"/>
<stop offset="0.4266" stop-color="#FF4B52"/>
<stop offset="0.7662" stop-color="#FF216E"/>
<stop offset="1" stop-color="#FF0084"/>
</linearGradient>
<linearGradient id="paint10_linear_2_1509" x1="119.285" y1="72.4337" x2="110.993" y2="63.1051" gradientUnits="userSpaceOnUse">
<stop stop-color="#E58200" stop-opacity="0"/>
<stop offset="0.4384" stop-color="#C4602C" stop-opacity="0.439216"/>
<stop offset="0.7953" stop-color="#AE4948" stop-opacity="0.796078"/>
<stop offset="1" stop-color="#A64153"/>
</linearGradient>
<linearGradient id="paint11_linear_2_1509" x1="109.421" y1="72.0109" x2="106.365" y2="59.0155" gradientUnits="userSpaceOnUse">
<stop stop-color="#FF0084"/>
<stop offset="0.2338" stop-color="#FF216E"/>
<stop offset="0.5734" stop-color="#FF4B52"/>
<stop offset="0.8404" stop-color="#FF6440"/>
<stop offset="1" stop-color="#FF6E3A"/>
</linearGradient>
<linearGradient id="paint12_linear_2_1509" x1="119.343" y1="72.6195" x2="120.374" y2="56.8904" gradientUnits="userSpaceOnUse">
<stop stop-color="#FF0084"/>
<stop offset="0.2338" stop-color="#FF216E"/>
<stop offset="0.5734" stop-color="#FF4B52"/>
<stop offset="0.8404" stop-color="#FF6440"/>
<stop offset="1" stop-color="#FF6E3A"/>
</linearGradient>
<linearGradient id="paint13_linear_2_1509" x1="108.622" y1="69.7353" x2="108.41" y2="64.8704" gradientUnits="userSpaceOnUse">
<stop stop-color="#E58200" stop-opacity="0"/>
<stop offset="0.4384" stop-color="#C4602C" stop-opacity="0.439216"/>
<stop offset="0.7953" stop-color="#AE4948" stop-opacity="0.796078"/>
<stop offset="1" stop-color="#A64153"/>
</linearGradient>
<linearGradient id="paint14_linear_2_1509" x1="107.341" y1="66.1268" x2="115.625" y2="58.5991" gradientUnits="userSpaceOnUse">
<stop stop-color="#E58200" stop-opacity="0"/>
<stop offset="0.4384" stop-color="#C4602C" stop-opacity="0.439216"/>
<stop offset="0.7953" stop-color="#AE4948" stop-opacity="0.796078"/>
<stop offset="1" stop-color="#A64153"/>
</linearGradient>
<linearGradient id="paint15_linear_2_1509" x1="119.003" y1="69.646" x2="119.175" y2="64.7791" gradientUnits="userSpaceOnUse">
<stop stop-color="#E58200" stop-opacity="0"/>
<stop offset="0.4384" stop-color="#C4602C" stop-opacity="0.439216"/>
<stop offset="0.7953" stop-color="#AE4948" stop-opacity="0.796078"/>
<stop offset="1" stop-color="#A64153"/>
</linearGradient>
<linearGradient id="paint16_linear_2_1509" x1="120.249" y1="66.0265" x2="111.883" y2="58.5702" gradientUnits="userSpaceOnUse">
<stop stop-color="#E58200" stop-opacity="0"/>
<stop offset="0.4384" stop-color="#C4602C" stop-opacity="0.439216"/>
<stop offset="0.7953" stop-color="#AE4948" stop-opacity="0.796078"/>
<stop offset="1" stop-color="#A64153"/>
</linearGradient>
<linearGradient id="paint17_linear_2_1509" x1="121.151" y1="69.3553" x2="114.932" y2="62.3581" gradientUnits="userSpaceOnUse">
<stop stop-color="#E58200" stop-opacity="0"/>
<stop offset="0.4384" stop-color="#C4602C" stop-opacity="0.439216"/>
<stop offset="0.7953" stop-color="#AE4948" stop-opacity="0.796078"/>
<stop offset="1" stop-color="#A64153"/>
</linearGradient>
<linearGradient id="paint18_linear_2_1509" x1="111.187" y1="62.7001" x2="116.906" y2="69.1334" gradientUnits="userSpaceOnUse">
<stop stop-color="#FF6E3A"/>
<stop offset="0.1596" stop-color="#FF6440"/>
<stop offset="0.4266" stop-color="#FF4B52"/>
<stop offset="0.7662" stop-color="#FF216E"/>
<stop offset="1" stop-color="#FF0084"/>
</linearGradient>
<linearGradient id="paint19_linear_2_1509" x1="122.348" y1="74.1221" x2="122.348" y2="80.3087" gradientUnits="userSpaceOnUse">
<stop stop-color="#45425A"/>
<stop offset="1" stop-color="#2D3251"/>
</linearGradient>
<linearGradient id="paint20_linear_2_1509" x1="128.116" y1="74.1221" x2="128.116" y2="80.3087" gradientUnits="userSpaceOnUse">
<stop stop-color="#45425A"/>
<stop offset="1" stop-color="#2D3251"/>
</linearGradient>
<linearGradient id="paint21_linear_2_1509" x1="133.982" y1="74.1225" x2="133.982" y2="80.3092" gradientUnits="userSpaceOnUse">
<stop stop-color="#45425A"/>
<stop offset="1" stop-color="#2D3251"/>
</linearGradient>
<linearGradient id="paint22_linear_2_1509" x1="139.856" y1="74.1221" x2="139.856" y2="80.3087" gradientUnits="userSpaceOnUse">
<stop stop-color="#45425A"/>
<stop offset="1" stop-color="#2D3251"/>
</linearGradient>
<linearGradient id="paint23_linear_2_1509" x1="145.516" y1="74.1221" x2="145.516" y2="80.3087" gradientUnits="userSpaceOnUse">
<stop stop-color="#45425A"/>
<stop offset="1" stop-color="#2D3251"/>
</linearGradient>
<linearGradient id="paint24_linear_2_1509" x1="151.458" y1="74.1221" x2="151.458" y2="80.3087" gradientUnits="userSpaceOnUse">
<stop stop-color="#45425A"/>
<stop offset="1" stop-color="#2D3251"/>
</linearGradient>
<linearGradient id="paint25_linear_2_1509" x1="156.904" y1="74.1221" x2="156.904" y2="80.3087" gradientUnits="userSpaceOnUse">
<stop stop-color="#45425A"/>
<stop offset="1" stop-color="#2D3251"/>
</linearGradient>
<linearGradient id="paint26_linear_2_1509" x1="234.41" y1="12.4487" x2="243.786" y2="22.9958" gradientUnits="userSpaceOnUse">
<stop stop-color="#FFD459"/>
<stop offset="0.2296" stop-color="#FFD355"/>
<stop offset="0.4362" stop-color="#FFCF4A"/>
<stop offset="0.634" stop-color="#FFC838"/>
<stop offset="0.825" stop-color="#FFBF1F"/>
<stop offset="1" stop-color="#FFB400"/>
</linearGradient>
<linearGradient id="paint27_linear_2_1509" x1="238.48" y1="18.8924" x2="238.48" y2="20.294" gradientUnits="userSpaceOnUse">
<stop stop-color="#E58200" stop-opacity="0"/>
<stop offset="0.0396" stop-color="#E27F04" stop-opacity="0.039216"/>
<stop offset="0.4671" stop-color="#C15D2F" stop-opacity="0.466667"/>
<stop offset="0.8016" stop-color="#AD4949" stop-opacity="0.8"/>
<stop offset="1" stop-color="#A64153"/>
</linearGradient>
<linearGradient id="paint28_linear_2_1509" x1="232.086" y1="16.7445" x2="231.747" y2="15.8715" gradientUnits="userSpaceOnUse">
<stop stop-color="#E58200" stop-opacity="0"/>
<stop offset="0.0396" stop-color="#E27F04" stop-opacity="0.039216"/>
<stop offset="0.4671" stop-color="#C15D2F" stop-opacity="0.466667"/>
<stop offset="0.8016" stop-color="#AD4949" stop-opacity="0.8"/>
<stop offset="1" stop-color="#A64153"/>
</linearGradient>
<linearGradient id="paint29_linear_2_1509" x1="236.298" y1="13.2685" x2="234.086" y2="11.51" gradientUnits="userSpaceOnUse">
<stop stop-color="#E58200" stop-opacity="0"/>
<stop offset="0.0396" stop-color="#E27F04" stop-opacity="0.039216"/>
<stop offset="0.4671" stop-color="#C15D2F" stop-opacity="0.466667"/>
<stop offset="0.8016" stop-color="#AD4949" stop-opacity="0.8"/>
<stop offset="1" stop-color="#A64153"/>
</linearGradient>
<linearGradient id="paint30_linear_2_1509" x1="235.251" y1="13.1323" x2="242.853" y2="21.6866" gradientUnits="userSpaceOnUse">
<stop stop-color="#FFFCF8"/>
<stop offset="0.1875" stop-color="#FAF8F6"/>
<stop offset="0.4041" stop-color="#ECEEF2"/>
<stop offset="0.6353" stop-color="#D5DCEA"/>
<stop offset="0.875" stop-color="#B5C4DF"/>
<stop offset="1" stop-color="#A1B5D8"/>
</linearGradient>
<linearGradient id="paint31_linear_2_1509" x1="236.798" y1="18.0398" x2="234.593" y2="12.3697" gradientUnits="userSpaceOnUse">
<stop stop-color="#A1B5D8" stop-opacity="0"/>
<stop offset="0.0343" stop-color="#9FB3D5" stop-opacity="0.035294"/>
<stop offset="0.4515" stop-color="#8898AF" stop-opacity="0.45098"/>
<stop offset="0.788" stop-color="#798898" stop-opacity="0.788235"/>
<stop offset="1" stop-color="#748290"/>
</linearGradient>
<linearGradient id="paint32_linear_2_1509" x1="238.48" y1="14.9534" x2="238.48" y2="16.8083" gradientUnits="userSpaceOnUse">
<stop stop-color="#FF6E3A"/>
<stop offset="0.1596" stop-color="#FF6440"/>
<stop offset="0.4266" stop-color="#FF4B52"/>
<stop offset="0.7662" stop-color="#FF216E"/>
<stop offset="1" stop-color="#FF0084"/>
</linearGradient>
<linearGradient id="paint33_linear_2_1509" x1="238.025" y1="16.4373" x2="236.032" y2="14.195" gradientUnits="userSpaceOnUse">
<stop stop-color="#E58200" stop-opacity="0"/>
<stop offset="0.4384" stop-color="#C4602C" stop-opacity="0.439216"/>
<stop offset="0.7953" stop-color="#AE4948" stop-opacity="0.796078"/>
<stop offset="1" stop-color="#A64153"/>
</linearGradient>
<linearGradient id="paint34_linear_2_1509" x1="234.55" y1="15.5943" x2="234.55" y2="21.9851" gradientUnits="userSpaceOnUse">
<stop stop-color="#FF6E3A"/>
<stop offset="0.1596" stop-color="#FF6440"/>
<stop offset="0.4266" stop-color="#FF4B52"/>
<stop offset="0.7662" stop-color="#FF216E"/>
<stop offset="1" stop-color="#FF0084"/>
</linearGradient>
<linearGradient id="paint35_linear_2_1509" x1="235.783" y1="17.0491" x2="233.916" y2="14.9495" gradientUnits="userSpaceOnUse">
<stop stop-color="#E58200" stop-opacity="0"/>
<stop offset="0.4384" stop-color="#C4602C" stop-opacity="0.439216"/>
<stop offset="0.7953" stop-color="#AE4948" stop-opacity="0.796078"/>
<stop offset="1" stop-color="#A64153"/>
</linearGradient>
<linearGradient id="paint36_linear_2_1509" x1="233.562" y1="16.954" x2="232.875" y2="14.0291" gradientUnits="userSpaceOnUse">
<stop stop-color="#FF0084"/>
<stop offset="0.2338" stop-color="#FF216E"/>
<stop offset="0.5734" stop-color="#FF4B52"/>
<stop offset="0.8404" stop-color="#FF6440"/>
<stop offset="1" stop-color="#FF6E3A"/>
</linearGradient>
<linearGradient id="paint37_linear_2_1509" x1="235.796" y1="17.0909" x2="236.028" y2="13.5507" gradientUnits="userSpaceOnUse">
<stop stop-color="#FF0084"/>
<stop offset="0.2338" stop-color="#FF216E"/>
<stop offset="0.5734" stop-color="#FF4B52"/>
<stop offset="0.8404" stop-color="#FF6440"/>
<stop offset="1" stop-color="#FF6E3A"/>
</linearGradient>
<linearGradient id="paint38_linear_2_1509" x1="233.383" y1="16.4419" x2="233.335" y2="15.347" gradientUnits="userSpaceOnUse">
<stop stop-color="#E58200" stop-opacity="0"/>
<stop offset="0.4384" stop-color="#C4602C" stop-opacity="0.439216"/>
<stop offset="0.7953" stop-color="#AE4948" stop-opacity="0.796078"/>
<stop offset="1" stop-color="#A64153"/>
</linearGradient>
<linearGradient id="paint39_linear_2_1509" x1="233.094" y1="15.6296" x2="234.959" y2="13.9354" gradientUnits="userSpaceOnUse">
<stop stop-color="#E58200" stop-opacity="0"/>
<stop offset="0.4384" stop-color="#C4602C" stop-opacity="0.439216"/>
<stop offset="0.7953" stop-color="#AE4948" stop-opacity="0.796078"/>
<stop offset="1" stop-color="#A64153"/>
</linearGradient>
<linearGradient id="paint40_linear_2_1509" x1="235.719" y1="16.4217" x2="235.758" y2="15.3262" gradientUnits="userSpaceOnUse">
<stop stop-color="#E58200" stop-opacity="0"/>
<stop offset="0.4384" stop-color="#C4602C" stop-opacity="0.439216"/>
<stop offset="0.7953" stop-color="#AE4948" stop-opacity="0.796078"/>
<stop offset="1" stop-color="#A64153"/>
</linearGradient>
<linearGradient id="paint41_linear_2_1509" x1="235.999" y1="15.6071" x2="234.117" y2="13.9289" gradientUnits="userSpaceOnUse">
<stop stop-color="#E58200" stop-opacity="0"/>
<stop offset="0.4384" stop-color="#C4602C" stop-opacity="0.439216"/>
<stop offset="0.7953" stop-color="#AE4948" stop-opacity="0.796078"/>
<stop offset="1" stop-color="#A64153"/>
</linearGradient>
<linearGradient id="paint42_linear_2_1509" x1="236.203" y1="16.3563" x2="234.803" y2="14.7814" gradientUnits="userSpaceOnUse">
<stop stop-color="#E58200" stop-opacity="0"/>
<stop offset="0.4384" stop-color="#C4602C" stop-opacity="0.439216"/>
<stop offset="0.7953" stop-color="#AE4948" stop-opacity="0.796078"/>
<stop offset="1" stop-color="#A64153"/>
</linearGradient>
<linearGradient id="paint43_linear_2_1509" x1="233.96" y1="14.8585" x2="235.247" y2="16.3065" gradientUnits="userSpaceOnUse">
<stop stop-color="#FF6E3A"/>
<stop offset="0.1596" stop-color="#FF6440"/>
<stop offset="0.4266" stop-color="#FF4B52"/>
<stop offset="0.7662" stop-color="#FF216E"/>
<stop offset="1" stop-color="#FF0084"/>
</linearGradient>
<linearGradient id="paint44_linear_2_1509" x1="236.472" y1="17.4292" x2="236.472" y2="18.8216" gradientUnits="userSpaceOnUse">
<stop stop-color="#45425A"/>
<stop offset="1" stop-color="#2D3251"/>
</linearGradient>
<linearGradient id="paint45_linear_2_1509" x1="237.77" y1="17.4292" x2="237.77" y2="18.8216" gradientUnits="userSpaceOnUse">
<stop stop-color="#45425A"/>
<stop offset="1" stop-color="#2D3251"/>
</linearGradient>
<linearGradient id="paint46_linear_2_1509" x1="239.09" y1="17.4293" x2="239.09" y2="18.8217" gradientUnits="userSpaceOnUse">
<stop stop-color="#45425A"/>
<stop offset="1" stop-color="#2D3251"/>
</linearGradient>
<linearGradient id="paint47_linear_2_1509" x1="240.413" y1="17.4292" x2="240.413" y2="18.8216" gradientUnits="userSpaceOnUse">
<stop stop-color="#45425A"/>
<stop offset="1" stop-color="#2D3251"/>
</linearGradient>
<linearGradient id="paint48_linear_2_1509" x1="241.686" y1="17.4292" x2="241.686" y2="18.8216" gradientUnits="userSpaceOnUse">
<stop stop-color="#45425A"/>
<stop offset="1" stop-color="#2D3251"/>
</linearGradient>
<linearGradient id="paint49_linear_2_1509" x1="243.024" y1="17.4292" x2="243.024" y2="18.8216" gradientUnits="userSpaceOnUse">
<stop stop-color="#45425A"/>
<stop offset="1" stop-color="#2D3251"/>
</linearGradient>
<linearGradient id="paint50_linear_2_1509" x1="244.25" y1="17.4292" x2="244.25" y2="18.8216" gradientUnits="userSpaceOnUse">
<stop stop-color="#45425A"/>
<stop offset="1" stop-color="#2D3251"/>
</linearGradient>
</defs>
</svg>
