<svg width="261" height="162" viewBox="0 0 261 162" fill="none" xmlns="http://www.w3.org/2000/svg">
<rect x="0.25" y="0.327148" width="260.466" height="160.865" rx="15" fill="url(#paint0_linear_2_1488)"/>
<path d="M153.093 64.6762L143.376 59.688L130.064 68.5297L143.376 77.3715L153.126 72.3661C154.646 71.5452 155.554 70.1106 155.554 68.5299C155.554 66.9493 154.646 65.5148 153.093 64.6762Z" fill="#FF9100"/>
<path d="M133.43 68.5299C133.415 68.5465 121.659 81.9821 121.649 81.9929L106.335 92.7135C105.393 91.8757 104.821 90.7391 104.821 89.4823V47.5033C104.821 46.2468 105.393 45.1098 106.335 44.2722L121.649 55.0668C121.659 55.0777 133.415 68.5132 133.43 68.5299Z" fill="#25D9F8"/>
<path d="M133.429 68.5301L130.064 72.3894V64.6706L133.429 68.5301Z" fill="#00C0F1"/>
<path d="M143.394 59.6742L133.431 68.53L106.337 44.2725C106.673 44.0031 107.01 43.7937 107.38 43.5843C108.996 42.7766 110.914 42.8064 112.496 43.6741L130.065 52.853L143.394 59.6742Z" fill="#7FE881"/>
<path d="M143.392 59.6742L133.429 68.53L130.064 65.5382V52.853L143.392 59.6742Z" fill="#5BC980"/>
<path d="M143.394 77.3853L130.065 84.2067L112.462 93.3417C111.655 93.7604 110.78 93.9998 109.871 93.9998C109.029 93.9998 108.188 93.7903 107.38 93.4014C107.01 93.192 106.673 92.9827 106.337 92.7134L133.431 68.5297L143.394 77.3853Z" fill="#FF637B"/>
<path d="M143.392 77.3853L130.064 84.2067V71.5215L133.429 68.5297L143.392 77.3853Z" fill="#E63950"/>
<g clip-path="url(#clip0_2_1488)">
<path d="M242.004 13.6756L239.908 12.5997L237.037 14.5068L239.908 16.4138L242.011 15.3342C242.339 15.1572 242.535 14.8477 242.535 14.5068C242.535 14.1659 242.339 13.8565 242.004 13.6756Z" fill="#FF9100"/>
<path d="M237.762 14.5063C237.759 14.5099 235.223 17.4077 235.221 17.4101L231.918 19.7224C231.715 19.5417 231.592 19.2965 231.592 19.0254V9.97112C231.592 9.70012 231.715 9.45489 231.918 9.27423L235.221 11.6025C235.223 11.6048 237.759 14.5027 237.762 14.5063Z" fill="#25D9F8"/>
<path d="M237.763 14.5062L237.037 15.3386V13.6738L237.763 14.5062Z" fill="#00C0F1"/>
<path d="M239.911 12.5965L237.763 14.5066L231.919 9.27455C231.991 9.21646 232.064 9.17129 232.144 9.12612C232.492 8.95191 232.906 8.95834 233.247 9.1455L237.037 11.1253L239.911 12.5965Z" fill="#7FE881"/>
<path d="M239.912 12.5968L237.763 14.5069L237.037 13.8616V11.1255L239.912 12.5968Z" fill="#5BC980"/>
<path d="M239.911 16.4167L237.037 17.888L233.24 19.8583C233.066 19.9486 232.877 20.0003 232.681 20.0003C232.499 20.0003 232.318 19.9551 232.144 19.8712C232.064 19.826 231.991 19.7809 231.919 19.7228L237.763 14.5067L239.911 16.4167Z" fill="#FF637B"/>
<path d="M239.912 16.4167L237.037 17.888V15.152L237.763 14.5067L239.912 16.4167Z" fill="#E63950"/>
</g>
<path d="M88.1394 120.714H93.452C93.452 120.798 93.455 120.915 93.4611 121.066C93.4795 121.463 93.4886 121.732 93.4886 121.872C93.4886 123.601 92.9482 124.943 91.8674 125.9C90.7865 126.857 89.263 127.335 87.2967 127.335C86.1976 127.335 85.2175 127.187 84.3565 126.89C83.4955 126.594 82.7414 126.146 82.0941 125.548C81.459 124.955 80.9705 124.258 80.6285 123.458C80.2927 122.658 80.1248 121.802 80.1248 120.89C80.1248 119.961 80.2957 119.105 80.6377 118.322C80.9858 117.539 81.4987 116.848 82.1765 116.249C82.8299 115.662 83.5962 115.214 84.4756 114.906C85.3549 114.599 86.2953 114.445 87.2967 114.445C88.3531 114.445 89.2966 114.621 90.127 114.973C90.9636 115.326 91.7086 115.866 92.362 116.593L90.7682 117.693C90.3163 117.211 89.8065 116.853 89.2386 116.618C88.6707 116.383 88.0356 116.266 87.3334 116.266C85.88 116.266 84.6923 116.694 83.7703 117.55C82.8543 118.4 82.3963 119.508 82.3963 120.873C82.3963 122.261 82.8543 123.388 83.7703 124.255C84.6923 125.117 85.8861 125.548 87.3517 125.548C88.5974 125.548 89.5775 125.282 90.2919 124.75C91.0064 124.219 91.3636 123.494 91.3636 122.577V122.401H88.1394V120.714Z" fill="#FFFBF7"/>
<path d="M102.447 123.055C102.447 122.317 102.187 121.693 101.668 121.184C101.149 120.669 100.514 120.412 99.763 120.412C99.018 120.412 98.3829 120.669 97.8578 121.184C97.3387 121.693 97.0792 122.317 97.0792 123.055C97.0792 123.794 97.3387 124.42 97.8578 124.935C98.3829 125.444 99.018 125.699 99.763 125.699C100.508 125.699 101.14 125.444 101.659 124.935C102.184 124.42 102.447 123.794 102.447 123.055ZM94.9816 123.038C94.9816 122.457 95.1007 121.908 95.3389 121.394C95.5831 120.873 95.9312 120.412 96.3831 120.009C96.8288 119.612 97.3418 119.307 97.9219 119.094C98.502 118.881 99.1096 118.775 99.7446 118.775C100.398 118.775 101.012 118.881 101.586 119.094C102.166 119.307 102.685 119.62 103.143 120.034C103.601 120.442 103.949 120.904 104.187 121.419C104.425 121.933 104.544 122.473 104.544 123.038C104.544 123.626 104.425 124.177 104.187 124.692C103.955 125.206 103.613 125.662 103.161 126.06C102.685 126.479 102.157 126.795 101.577 127.008C100.996 127.226 100.386 127.335 99.7446 127.335C99.1157 127.335 98.5111 127.226 97.931 127.008C97.3509 126.795 96.8349 126.485 96.3831 126.076C95.9251 125.662 95.577 125.198 95.3389 124.683C95.1007 124.169 94.9816 123.62 94.9816 123.038Z" fill="#FFFBF7"/>
<path d="M113.475 123.055C113.475 122.317 113.215 121.693 112.696 121.184C112.177 120.669 111.542 120.412 110.791 120.412C110.046 120.412 109.411 120.669 108.886 121.184C108.367 121.693 108.107 122.317 108.107 123.055C108.107 123.794 108.367 124.42 108.886 124.935C109.411 125.444 110.046 125.699 110.791 125.699C111.536 125.699 112.168 125.444 112.687 124.935C113.212 124.42 113.475 123.794 113.475 123.055ZM106.01 123.038C106.01 122.457 106.129 121.908 106.367 121.394C106.611 120.873 106.959 120.412 107.411 120.009C107.857 119.612 108.37 119.307 108.95 119.094C109.53 118.881 110.138 118.775 110.773 118.775C111.426 118.775 112.04 118.881 112.614 119.094C113.194 119.307 113.713 119.62 114.171 120.034C114.629 120.442 114.977 120.904 115.215 121.419C115.453 121.933 115.572 122.473 115.572 123.038C115.572 123.626 115.453 124.177 115.215 124.692C114.983 125.206 114.641 125.662 114.189 126.06C113.713 126.479 113.185 126.795 112.605 127.008C112.025 127.226 111.414 127.335 110.773 127.335C110.144 127.335 109.539 127.226 108.959 127.008C108.379 126.795 107.863 126.485 107.411 126.076C106.953 125.662 106.605 125.198 106.367 124.683C106.129 124.169 106.01 123.62 106.01 123.038Z" fill="#FFFBF7"/>
<path d="M123.917 123.005C123.917 122.182 123.706 121.542 123.285 121.083C122.87 120.624 122.286 120.395 121.535 120.395C120.784 120.395 120.192 120.633 119.758 121.108C119.331 121.578 119.117 122.233 119.117 123.072C119.117 123.917 119.325 124.569 119.74 125.027C120.155 125.486 120.742 125.715 121.499 125.715C122.213 125.715 122.793 125.467 123.239 124.969C123.691 124.471 123.917 123.816 123.917 123.005ZM125.85 126.513C125.85 128.068 125.511 129.162 124.833 129.794C124.155 130.432 123.013 130.751 121.407 130.751C120.21 130.751 119.255 130.519 118.54 130.054C117.826 129.595 117.462 128.983 117.45 128.216L119.584 128.208C119.615 128.549 119.789 128.809 120.106 128.988C120.424 129.167 120.87 129.257 121.444 129.257C122.293 129.257 122.903 129.086 123.276 128.745C123.648 128.404 123.837 127.833 123.844 127.033L123.862 125.976C123.508 126.434 123.092 126.776 122.616 127C122.146 127.223 121.606 127.335 120.995 127.335C119.768 127.335 118.8 126.952 118.091 126.185C117.389 125.413 117.038 124.359 117.038 123.022C117.038 121.752 117.398 120.728 118.119 119.95C118.839 119.167 119.78 118.775 120.94 118.775C121.648 118.775 122.253 118.912 122.754 119.186C123.26 119.455 123.63 119.844 123.862 120.353V119.052H125.85V126.513Z" fill="#FFFBF7"/>
<path d="M128.689 127.008V114H130.677V127.008H128.689Z" fill="#FFFBF7"/>
<path d="M141.888 123.299H134.945C134.994 124.043 135.235 124.625 135.669 125.044C136.102 125.458 136.679 125.665 137.4 125.665C138.041 125.665 138.575 125.542 139.003 125.296C139.43 125.05 139.803 124.652 140.12 124.104L141.796 124.96C141.308 125.76 140.703 126.356 139.983 126.748C139.262 127.139 138.417 127.335 137.446 127.335C136.053 127.335 134.945 126.946 134.121 126.169C133.296 125.391 132.884 124.353 132.884 123.055C132.884 121.808 133.308 120.784 134.157 119.984C135.012 119.178 136.108 118.775 137.446 118.775C138.844 118.775 139.934 119.142 140.716 119.875C141.497 120.607 141.888 121.634 141.888 122.954V123.299ZM139.827 122.073C139.748 121.503 139.51 121.069 139.113 120.772C138.716 120.47 138.172 120.319 137.482 120.319C136.829 120.319 136.304 120.465 135.907 120.756C135.51 121.047 135.232 121.486 135.073 122.073H139.827Z" fill="#FFFBF7"/>
<path d="M151.973 119.858H152.531C153.741 119.858 154.547 119.737 154.95 119.497C155.353 119.256 155.554 118.831 155.554 118.221C155.554 117.567 155.337 117.105 154.904 116.837C154.476 116.568 153.686 116.434 152.531 116.434H151.973V119.858ZM151.835 121.494V127.008H149.793V114.722H153.09C154.067 114.722 154.785 114.772 155.243 114.873C155.707 114.968 156.11 115.127 156.452 115.351C156.873 115.636 157.203 116.023 157.441 116.509C157.679 116.99 157.798 117.522 157.798 118.104C157.798 118.686 157.679 119.223 157.441 119.715C157.203 120.207 156.873 120.593 156.452 120.873C156.11 121.097 155.707 121.256 155.243 121.352C154.785 121.447 154.067 121.494 153.09 121.494H151.835Z" fill="#FFFBF7"/>
<path d="M159.703 127.008V114H161.691V127.008H159.703Z" fill="#FFFBF7"/>
<path d="M172.71 127.008H170.722V125.976C170.368 126.434 169.953 126.776 169.477 127C169.007 127.223 168.466 127.335 167.855 127.335C166.628 127.335 165.66 126.952 164.952 126.185C164.25 125.413 163.899 124.359 163.899 123.022C163.899 121.752 164.259 120.728 164.979 119.95C165.7 119.167 166.64 118.775 167.801 118.775C168.509 118.775 169.113 118.912 169.614 119.186C170.121 119.455 170.49 119.844 170.722 120.353V119.052H172.71V127.008ZM170.777 123.005C170.777 122.182 170.567 121.542 170.145 121.083C169.73 120.624 169.147 120.395 168.396 120.395C167.645 120.395 167.052 120.633 166.619 121.108C166.191 121.578 165.978 122.233 165.978 123.072C165.978 123.917 166.185 124.569 166.601 125.027C167.016 125.486 167.602 125.715 168.359 125.715C169.074 125.715 169.654 125.467 170.1 124.969C170.551 124.471 170.777 123.816 170.777 123.005Z" fill="#FFFBF7"/>
<path d="M176.951 130.751H174.908L177.29 126.32L174.102 119.052H176.301L177.894 123.173C177.986 123.424 178.065 123.682 178.133 123.945C178.206 124.202 178.264 124.465 178.307 124.734C178.386 124.454 178.575 124.009 178.874 123.399L178.92 123.299L181.064 119.052H183.216L176.951 130.751Z" fill="#FFFBF7"/>
<defs>
<linearGradient id="paint0_linear_2_1488" x1="154.6" y1="-38.6704" x2="249.561" y2="186.191" gradientUnits="userSpaceOnUse">
<stop offset="0.104167" stop-color="#99FDD9"/>
<stop offset="1" stop-color="#1E62A2"/>
</linearGradient>
<clipPath id="clip0_2_1488">
<rect width="12.375" height="11" fill="white" transform="translate(230.875 9)"/>
</clipPath>
</defs>
</svg>
