<svg width="26" height="25" viewBox="0 0 26 25" fill="none" xmlns="http://www.w3.org/2000/svg">
<g clip-path="url(#clip0_2_1418)">
<path d="M4.229 22.0792H19.0821L18.3728 19.7823L20.0696 21.2385L21.6248 22.6323L24.4582 25V2.57812C24.3873 1.18437 23.1873 0 21.6998 0L4.23421 0.003125C2.74775 0.003125 1.5415 1.18958 1.5415 2.58333V19.5C1.5415 20.9698 2.74567 22.0792 4.229 22.0792V22.0792ZM15.2165 5.91979L15.1821 5.93229L15.1946 5.91979H15.2165ZM7.26755 7.24167C9.17692 5.85208 10.9467 5.91875 10.9467 5.91875L11.0894 6.05937C8.75296 6.61667 7.69359 7.66042 7.69359 7.66042C7.69359 7.66042 7.97692 7.52187 8.47171 7.31042C11.6186 6.07292 15.055 6.1625 18.2363 7.72917C18.2363 7.72917 17.1748 6.75312 14.9821 6.12812L15.1759 5.9375C15.479 5.93854 17.0832 5.99479 18.7998 7.25C18.7998 7.25 20.7207 10.5312 20.7207 14.5625C20.6571 14.4854 19.529 16.2979 16.6259 16.3604C16.6259 16.3604 16.1342 15.8042 15.7842 15.3187C17.4821 14.8312 18.1175 13.8562 18.1175 13.8562C17.5603 14.2073 17.0519 14.4156 16.6394 14.624C16.005 14.9031 15.3696 15.0406 14.7353 15.1812C11.7311 15.6687 10.0446 14.8531 8.45088 14.2062L7.90609 13.9292C7.90609 13.9292 8.54046 14.9042 10.1707 15.3917C9.74255 15.8802 9.31859 16.4354 9.31859 16.4354C6.4165 16.3667 5.35817 14.5542 5.35817 14.5542C5.35817 10.5167 7.26755 7.24167 7.26755 7.24167V7.24167Z" fill="white"/>
<path d="M15.4041 13.3036C16.1447 13.3036 16.7478 12.6786 16.7478 11.9077C16.7478 11.1421 16.1478 10.5171 15.4041 10.5171V10.5202C14.6666 10.5202 14.0624 11.1431 14.0603 11.914C14.0603 12.6786 14.6634 13.3036 15.4041 13.3036Z" fill="white"/>
<path d="M10.5937 13.3036C11.3344 13.3036 11.9375 12.6786 11.9375 11.9077C11.9375 11.1421 11.3385 10.5171 10.5979 10.5171L10.5937 10.5202C9.85312 10.5202 9.25 11.1431 9.25 11.914C9.25 12.6786 9.85312 13.3036 10.5937 13.3036V13.3036Z" fill="white"/>
</g>
<defs>
<clipPath id="clip0_2_1418">
<rect width="25" height="25" fill="white" transform="translate(0.5)"/>
</clipPath>
</defs>
</svg>
