<svg width="49" height="58" viewBox="0 0 49 58" fill="none" xmlns="http://www.w3.org/2000/svg">
<path d="M48.195 49.1709C47.6359 48.5548 42.8199 48.0244 39.8821 49.8577C39.434 50.1388 39.5073 50.5278 40.0119 50.4757C41.664 50.3026 45.3494 49.9099 46.0027 50.6544C46.6581 51.4007 45.2719 54.483 44.65 55.8566C44.4594 56.2736 44.8657 56.4411 45.2886 56.1284C48.0505 54.0847 48.7583 49.7926 48.195 49.1709Z" fill="#FF8000"/>
<path d="M43.1246 51.7544C37.3705 53.9265 31.1117 54.9725 25.4162 54.9725C16.984 54.9725 8.81134 52.9195 2.20916 49.5022C1.63333 49.2007 1.20408 49.7274 1.68359 50.1127C7.80416 55.0283 15.893 57.984 24.8781 57.984C31.2897 57.984 38.7295 56.1916 43.868 52.8265C44.716 52.2681 43.9936 51.4305 43.1246 51.7544Z" fill="#FF8000"/>
<path d="M45.1636 40.1175C43.4369 37.9854 41.6091 36.2643 41.6091 32.3405V19.2655C41.6091 13.7362 42.0498 8.65001 37.4621 4.83539C33.8353 1.74644 27.8388 0.661133 23.2367 0.661133C14.2637 0.661133 4.2503 3.63449 2.13347 13.4986C1.91673 14.5518 2.78369 15.1041 3.53506 15.2582L12.7104 16.1316C13.5484 16.0994 14.177 15.3545 14.3432 14.5967C15.1162 11.1995 18.3384 9.56192 21.9363 9.56192C23.8725 9.56192 26.0688 10.1977 27.2247 11.7454C28.5396 13.4665 28.359 15.8297 28.359 17.8205V18.8994C22.8972 19.4645 15.7447 19.8177 10.6152 21.8214C4.7199 24.0755 0.55127 28.7121 0.55127 35.5193C0.55127 44.2339 6.73559 48.5944 14.6755 48.5944C21.3944 48.5944 25.0646 47.188 30.2374 42.4936C31.9497 44.7027 32.5132 45.7816 35.6487 48.0935C36.3567 48.4274 37.2526 48.3889 37.8811 47.9008L37.91 47.9137C39.7884 46.4366 43.2057 43.7715 45.1419 42.3459C45.9077 41.7679 45.7777 40.8688 45.1636 40.1175ZM28.359 27.4342C28.359 30.7029 28.4602 33.4258 26.5962 36.3285C25.1007 38.6918 22.7238 40.1367 20.0651 40.1367C16.4455 40.1367 14.3432 37.69 14.3432 34.0616C14.3432 26.914 21.5462 25.6167 28.359 25.6167V27.4342Z" fill="#FFFBF7"/>
</svg>
