<svg width="26" height="25" viewBox="0 0 26 25" fill="none" xmlns="http://www.w3.org/2000/svg">
<g clip-path="url(#clip0_2_1962)">
<path d="M25.5 4.74844C24.5703 5.15625 23.5797 5.42656 22.5469 5.55781C23.6094 4.92344 24.4203 3.92656 24.8016 2.725C23.8109 3.31562 22.7172 3.73281 21.5516 3.96563C20.6109 2.96406 19.2703 2.34375 17.8078 2.34375C14.9703 2.34375 12.6859 4.64688 12.6859 7.47031C12.6859 7.87656 12.7203 8.26719 12.8047 8.63906C8.54375 8.43125 4.77344 6.38906 2.24062 3.27813C1.79844 4.04531 1.53906 4.92344 1.53906 5.86875C1.53906 7.64375 2.45312 9.21719 3.81562 10.1281C2.99219 10.1125 2.18437 9.87344 1.5 9.49688C1.5 9.5125 1.5 9.53281 1.5 9.55312C1.5 12.0437 3.27656 14.1125 5.60625 14.5891C5.18906 14.7031 4.73438 14.7578 4.2625 14.7578C3.93438 14.7578 3.60312 14.7391 3.29219 14.6703C3.95625 16.7 5.84063 18.1922 8.08125 18.2406C6.3375 19.6047 4.12344 20.4266 1.72656 20.4266C1.30625 20.4266 0.903125 20.4078 0.5 20.3563C2.77031 21.8203 5.46094 22.6562 8.3625 22.6562C17.7937 22.6562 22.95 14.8438 22.95 8.07187C22.95 7.84531 22.9422 7.62656 22.9312 7.40938C23.9484 6.6875 24.8031 5.78594 25.5 4.74844Z" fill="white"/>
</g>
<defs>
<clipPath id="clip0_2_1962">
<rect width="25" height="25" fill="white" transform="translate(0.5)"/>
</clipPath>
</defs>
</svg>
