<svg width="261" height="161" viewBox="0 0 261 161" fill="none" xmlns="http://www.w3.org/2000/svg">
<rect x="0.158691" width="260.466" height="160.865" rx="15" fill="black"/>
<path fill-rule="evenodd" clip-rule="evenodd" d="M129.894 92.6328C145.002 92.6328 157.25 81.746 157.25 68.3164C157.25 54.8868 145.002 44 129.894 44C114.786 44 102.538 54.8868 102.538 68.3164C102.538 69.9575 102.721 71.5606 103.07 73.1105L119.014 73.5234C120.052 71.7669 121.832 70.3588 124.112 69.6892L124.281 62.845C124.265 62.8044 124.248 62.7642 124.23 62.7241C124.196 62.6439 124.162 62.5639 124.133 62.4809C122.516 57.7834 125.508 52.8055 130.814 51.3628C136.119 49.9203 141.732 52.5584 143.349 57.256C144.629 60.9776 143.013 64.8671 139.653 67.0439L134.879 73.69C135.083 74.0614 135.267 74.4452 135.407 74.852C136.84 79.0152 134.19 83.4272 129.49 84.7053C125.435 85.8078 121.185 84.2167 119.17 81.0892L106.385 80.7584C111.159 87.8698 119.901 92.6328 129.894 92.6328ZM135.35 64.6533C138.294 63.8527 139.953 61.089 139.056 58.4816C138.159 55.8743 135.044 54.4093 132.1 55.2099C129.154 56.011 127.495 58.7739 128.392 61.3813C129.289 63.9887 132.402 65.4547 135.35 64.6533ZM135.99 66.5041C131.869 67.6246 127.511 65.575 126.255 61.9262C124.999 58.2758 127.322 54.4095 131.442 53.289C135.563 52.1687 139.924 54.2177 141.18 57.8681C142.435 61.5169 140.111 65.3836 135.99 66.5041ZM124.064 73.1422C127.201 72.2892 130.52 73.8505 131.476 76.628C132.431 79.4056 130.663 82.35 127.526 83.2024C124.972 83.8969 122.298 82.9918 120.876 81.1324L124.651 81.2304C126.992 81.6376 129.269 80.2873 129.733 78.2089C130.198 76.1341 128.678 74.1203 126.336 73.7118L122.833 73.6213C123.215 73.4264 123.624 73.2619 124.064 73.1422Z" fill="white"/>
<path fill-rule="evenodd" clip-rule="evenodd" d="M241.981 17C244.891 17 247.25 14.9031 247.25 12.3164C247.25 9.72974 244.891 7.63281 241.981 7.63281C239.071 7.63281 236.712 9.72974 236.712 12.3164C236.712 12.6325 236.747 12.9412 236.814 13.2397L239.884 13.3192C240.084 12.9809 240.427 12.7097 240.866 12.5807L240.898 11.2625C240.895 11.2546 240.892 11.2469 240.889 11.2391C240.882 11.2237 240.875 11.2083 240.87 11.1923C240.558 10.2875 241.135 9.32873 242.157 9.05085C243.178 8.773 244.26 9.28114 244.571 10.1859C244.818 10.9028 244.506 11.6519 243.859 12.0712L242.94 13.3513C242.979 13.4229 243.014 13.4968 243.041 13.5751C243.317 14.377 242.807 15.2268 241.902 15.473C241.121 15.6854 240.302 15.3789 239.914 14.7765L237.453 14.7128C238.372 16.0826 240.056 17 241.981 17ZM243.03 11.6107C243.597 11.4566 243.917 10.9242 243.744 10.422C243.571 9.9198 242.971 9.63765 242.404 9.79184C241.837 9.94614 241.517 10.4783 241.69 10.9805C241.863 11.4827 242.463 11.7651 243.03 11.6107ZM243.154 11.9672C242.36 12.1831 241.52 11.7883 241.279 11.0855C241.037 10.3824 241.484 9.63768 242.278 9.42186C243.071 9.20608 243.911 9.60072 244.153 10.3038C244.395 11.0066 243.947 11.7514 243.154 11.9672ZM240.857 13.2458C241.461 13.0815 242.1 13.3822 242.284 13.9172C242.468 14.4522 242.128 15.0193 241.523 15.1835C241.031 15.3173 240.516 15.143 240.243 14.7848L240.97 14.8037C241.42 14.8821 241.859 14.622 241.948 14.2217C242.038 13.8221 241.745 13.4342 241.294 13.3555L240.619 13.3381C240.693 13.3006 240.772 13.2689 240.857 13.2458Z" fill="white"/>
<path d="M73.2636 127C78.2731 127 80.7027 124.79 80.7027 122.204C80.7027 116.525 70.5083 118.492 70.5083 115.641C70.5083 114.669 71.4351 113.873 73.8397 113.873C75.3926 113.873 77.0708 114.271 78.6989 115.088L79.9513 112.37C78.3232 111.464 76.0689 111 73.8647 111C68.8802 111 66.4757 113.188 66.4757 115.818C66.4757 121.564 76.67 119.575 76.67 122.47C76.67 123.42 75.6932 124.127 73.2886 124.127C71.1846 124.127 68.9804 123.464 67.5026 122.514L66.125 125.21C67.678 126.271 70.4833 127 73.2636 127Z" fill="white"/>
<path d="M92.3418 126.735H96.3995V114.182H102.01V111.265H86.7312V114.182H92.3418V126.735Z" fill="white"/>
<path d="M113.705 123.862V120.282H121.846V117.497H113.705V114.138H122.923V111.265H109.673V126.735H123.248V123.862H113.705Z" fill="white"/>
<path d="M145.056 126.735H149.314L141.474 111.265H137.467L129.652 126.735H133.81L135.363 123.42H143.503L145.056 126.735ZM136.665 120.702L139.445 114.779L142.226 120.702H136.665Z" fill="white"/>
<path d="M176.375 126.735L176.325 111.265H172.994L166.531 120.878L159.969 111.265H156.612V126.735H160.42V117.652L165.554 125.099H167.383L172.543 117.453L172.568 126.735H176.375Z" fill="white"/>
<path d="M191.444 118.059C193.216 118.059 194.724 116.774 194.724 115.104C194.724 113.434 193.216 112.149 191.444 112.149C189.672 112.149 188.163 113.434 188.163 115.104C188.163 116.774 189.672 118.059 191.444 118.059Z" stroke="white" stroke-width="0.7"/>
<path d="M191.456 115.397H190.645V116.638H190.188V113.57H191.33C191.719 113.57 192.018 113.649 192.226 113.806C192.436 113.964 192.541 114.193 192.541 114.493C192.541 114.684 192.483 114.851 192.366 114.992C192.251 115.134 192.089 115.24 191.882 115.311L192.693 116.613V116.638H192.205L191.456 115.397ZM190.645 115.066H191.344C191.57 115.066 191.75 115.014 191.882 114.91C192.017 114.806 192.084 114.667 192.084 114.493C192.084 114.303 192.02 114.158 191.892 114.057C191.765 113.956 191.582 113.905 191.342 113.903H190.645V115.066Z" fill="white"/>
</svg>
